<?xml version="1.0" encoding="UTF-8"?>
<svg version="1.1" viewBox="0 0 1024 1024" width="1024" height="1024" xmlns="http://www.w3.org/2000/svg">
<path transform="translate(0)" d="m0 0h1024v1024h-1024z" fill="#CBD2C6"/>
<path transform="translate(599,209)" d="m0 0h17l12 5 7 6 6 10 1 6v9l-4 14-5 9-8 9v5l11 12 9 11 9 12 9 15 10 18 7 17 1 3 4-2 11-14 8-8 6-1 1-4 22-8h15l8-1 20 6 11 6 9 7 8 9 8 13 4 12 1 5v16l-3 13-3 8-2 7 5 6-1 5-12 8-5-4-7 6-12 6-14 5-7 1h-18l-13-2 1 2h-2v3h20l4 2-1 2-7 1h-9l-5-1v-2h-2l-1 2-8-4-3 1-12-8-5-5-7-8-5-10-4-11-4 5-3 2-2 8 1 5 2 4v3l10 3 4 1v9l-7 33-8 24-11 23-9 15-10 13-8 10-12 14-4 4 1 5 4 2 30 30 8 7 19 19 8 7 25 25 8 7 7 7 7 6 7 8 17 17 7 6 11 14 5 9 2 6v18l-4 11-6 9-7 7-14 7-13 2-12-2-12-5-10-7-40-40v-2l-4-2-54-54-13-12-1-3-4-2-25-25-8-7-14-13v-2l-9 2-19 5-26 6-7 1-28 1-24-2-27-5-15-4-18-6-37-18-16-11-12-9-14-12-6-5-7-8-12-13-10-13-10-16-8-16-7-15-7-19-5-19-1-7v-11l-11-11-3-7 1-7 9-8 3-2 4-27 6-22 7-19 7-15 8-14 5-9 8-12 13-17 11-12 8-8-5-5-22-14-2-3v-10l6-7 10-7 11-7 6-1 23 6 23 7 8 3 5-1 16-8 21-7 30-7 17-2h29l20 2 27 5 21 6 15 6 4-1 7-6 11-6 8-4z" fill="#0C2439"/>
<path transform="translate(608,289)" d="m0 0 3 1 8 11 9 10 9 13 11 16 10 18 11 22 5-5 4-5 2-3 1 3 4-2 11-14 8-8 6-1 1-4 22-8h15l8-1 20 6 11 6 9 7 8 9 8 13 4 12 1 5v16l-3 13-3 8-2 7 5 6-1 5-12 8-5-4-7 6-12 6-14 5-7 1h-18l-13-2 1 2h-2v3h20l4 2-1 2-7 1h-9l-5-1v-2h-2l-1 2-8-4-3 1-12-8-5-5-7-8-5-10-4-11-4 5-3 2-2 8 1 5 2 6-2 6-5 27-8 26-9 21-9 16-12 17-11 13-9 10-5 4-26-26-9-7 1-4 12-11 8-10 10-14 10-18 8-22 4-19 1-8v-33l-5-25-5-16-6-15-9-16-10-15-10-11-4-6 1-5 19-14z" fill="#86BBC5"/>
<path transform="translate(455,488)" d="m0 0h13l8 4 10 9 7 11 10 24 4 11 1 1 8-1 11-6 4-2 4 12 14 15 21 21 8 7 16 15 29 29 2 1v2l4 2 35 35 8 7 17 16 11 11 8 7 8 9 8 7 19 19 4 5 8 7 8 11 3 8v13l-4 9-8 7-6 2h-14l-12-5-12-11-7-8-22-22-6-5-5-6-5-5-6-5-5-6-8-7-32-32-8-7-23-23-8-7-13-12-8-7-15-14-8-7-52-52-8-7-11-11-4-5-7-6-5-5-9-10-7-7-1-3v-7l4-9 6-8 8-6z" fill="#86BCC5"/>
<path transform="translate(592,227)" d="m0 0h1l1 8 11 16 4 8 7 2-2 5-15 11-17 13-18 13-34 25-13 10-14 10-25 20-15 11-10 8-13 10-17 12-18 14-12 8-13 10-18 13-17 12-14 11-14 10-13 10-15 7-14 5-5 1h-7l-5-5 4-4h2v-2h2l2-4 7-7 4-3 7-3 14-2 7-3 15-10 4-5-1-6-1-1h-6l-21 10-4 2-3-1 2-3h2l2-4 10-9 11-9 13-12 20-15 13-10 14-11 18-14 16-13 3-1v-2l14-10 13-11 11-9 16-13 12-10 11-9 15-12 17-13 22-18 18-14 15-11 11-5z" fill="#F7F8EE"/>
<path transform="translate(751,332)" d="m0 0 8 1 17 5 11 6 9 7 8 9 8 13 4 12 1 5v16l-3 13-3 8-2 7 5 6-1 5-12 8-5-4-7 6-12 6-14 5-7 1h-18l-10-2-12-5-11-7-10-9-9-11-4-8-3-9-3-13 1-12 6-18 4-8 11-13 8-7h4l1-4 22-8h15z" fill="#0C2439"/>
<path transform="translate(743,493)" d="m0 0h6l4 2 2 5v17l15 4 12 7 9 7 8 11 5 10 2 8v4h14l5 5v6l-3 5-2 1h-8l-7-1v8l-4 12-6 10-8 9-16 9-11 4h-6l1 12v10l-4 6-7 1-6-5-1-23-13-4-15-8-10-9-6-8-4-8-2-8v-8h-16l-3-4-1-5 3-5 2-2h14l1-9 4-10 8-12 11-10 15-8 7-2h7l-1-4v-15z" fill="#0C2439"/>
<path transform="translate(454,404)" d="m0 0h2l12 31 8 20 6 18-1 3-8-4-6-1h-11l-14 4-10 6-8 6-7 8-5 8-3 12v10l3 8 11 13 29 29 8 7 4 4v2l-3 1h-21l-18-3-21-7-14-7-14-9-10-8-17-16-10-12-7-14-3-10 1-4 14-10 14-11 13-9 17-13 20-14 14-11 14-10 13-10z" fill="#CAD2C6"/>
<path transform="translate(328,544)" d="m0 0 5 4 8 10 8 8 13 10 15 10 29 13 16 4 22 3h20l16-3 4 1 7 8 30 30v2l-14 6-17 4-18 2h-21l-31-3-23-5-20-7-27-13-22-14-11-8-13-13v-5l10-7 9-7 3-6 1-20z" fill="#86BCC5"/>
<path transform="translate(558,326)" d="m0 0 5 5 9 11 10 14 8 13 6 17v3h2l5 16 3 16 1 13v12l-3 23-5 16-5 13-6 12-10 16h-2l-2 5-14 14-3 2-6-1-9-9-4-3 1-6 2-64 1-19 16-9 11-8 4-4 1-3v-9l-6-12-8-11-9-6-10-2v-15l1-28 8-7z" fill="#CAD2C6"/>
<path transform="translate(310,283)" d="m0 0 11 7 16 10 11 8-2 5-10 11-9 11-7 8-9 13-10 18-8 20-5 22-3 20-6-1-39-14-4-1v-7l7-26 9-22 10-21 12-20 9-12 9-11z" fill="#86BCC5"/>
<path transform="translate(740,346)" d="m0 0h15l13 4 11 6 6 4v2l4 2 6 8 6 12 2 9v13l-4 15-2 3-5-2-15-12v-2l-4-2-6-7-4-6-2-4-4-2-12-5-20-7-7-2 5 15 9 21 4 7 5 4 11 3 17 2 5 2v2l4 2 8 5-1 4-6 5-10 5-10 3h-21l-13-4-11-6-8-7v-2h-2l-8-13-4-13v-15l4-13 4-10 11-11 11-7 9-4z" fill="#CBD2C7"/>
<path transform="translate(237,533)" d="m0 0 3 4 8 16 12 18 11 13 12 13 2 4 4 2 13 12 19 14 16 10 33 16 24 8 24 5 20 3 26 1 18-1 25-5 24-6 10-3 5 5 16 15 10 9 25 25 14 13v2l4 2 93 93 14 8 10 3 11 1 10-2 14-7 7-7 6-10 2-5 2 4-5 15-8 11-10 7-9 4-8 1h-15l-11-4-11-7-1-2-7-4-22-22-2-1v-2h-2v-2l-4-2-12-12v-2h-2v-2h-2v-2h-2v-2h-2v-2h-2l-7-8-39-39-4-3v-2l-4-2-13-12-21-21-10-8-11-11-5 1-17 6-37 8-11 1h-20l-28-4-37-8-16-6-29-14-17-10-10-8-5-3-12-11-8-7-8-8-7-8-1-3h-2l-8-13-6-11-3-5-1-6-3-1-4-6-2-8v-2h-3l-1-3z" fill="#98BCC1"/>
<path transform="translate(298,238)" d="m0 0 9 1 21 6 16 5 15 5 17 5 8 3 21 7 12 5 34 12 10 4 9 3 4 2-2 4-16 12-14 11-13 11-4 1-17-10-14-8-27-16-15-10-5-4-11-6-22-14-10-7-15-10-4-4 8-5z" fill="#F7F8EE"/>
<path transform="translate(523,350)" d="m0 0h2v54l-1 74-1 44-5 6h-2l-5-11-5-17-6-21-4-13-11-30-11-33-2-7v-6l11-8 22-18h2v-2l8-6z" fill="#F6F8ED"/>
<path transform="translate(365,319)" d="m0 0 5 1 30 18 11 7-2 4-13 10-12 10-16 12-14 12-19 14-16 13-9 7-7 5v-8l5-22 7-20 9-17 12-17 11-12 11-11z" fill="#C9D1C6"/>
<path transform="translate(548,566)" d="m0 0 7 6 15 15 8 7 16 15 29 29 2 1v2l4 2 35 35 8 7 17 16 11 11 8 7 8 9 8 7 19 19 4 5 8 7 8 11 3 8v13l-4 9-8 7-6 2h-14l-8-3-3-11-1-4h-4l-2-7 2-1-3-2v-2h-2v-2l-7-1-1-7-2-3-7-1 1-5v-3l6 4-2-4 1-2-4 1v-2l-5-2-2-2-2 1 1-4h-2v-2l4 1 5-2v2h2l1-4 1 3 4 2-1 2 8 2v5l5-1-3-2 2-1h4l3-1 1 3-1 2 4 1 1-2h5l1 6h2v3l6 3-3 1 2 5 2-4 3 1-2 1v2l2-1h6l8 3-2-5-9-9-8-7-13-13-7-8-28-28-8-7-16-17-4-3v-2l-4-2-15-15-8-7-35-35-6-5-7-8-28-28-8-7-5-6z" fill="#7DAEB9"/>
<path transform="translate(450,228)" d="m0 0h14l22 2 31 6 15 5 5 3v3l-11 7-15 12-15 11-3 3h-2v2l-8-1-10-3-1-4 3-3v-7l-4-11-6-9-8-7-5-2h-12l-8 4-12 9-8 7-9-3-22-7 1-3 36-10 16-3z" fill="#86BBC4"/>
<path transform="translate(751,332)" d="m0 0 8 1 17 5 11 6 9 7 8 9 8 13 4 12 1 5v16l-3 13-2 1v-2l-8 2-2 1-3-3 3-12v-13l-3-11-6-12-6-7-2-1v-2l-5-2-8-5-9-4-8-2h-15l-12 3-11 6-9 7-7 7-7 18-1 5h-1l-2 11h-2l-1 3h-7l-2 4-2-8 1-12 6-18 4-8 11-13 8-7h4l1-4 22-8h15z" fill="#1E384B"/>
<path transform="translate(237,533)" d="m0 0 3 4 8 16 12 18 11 13 12 13 2 4 4 2 13 12 19 14 16 10 33 16 24 8 24 5 20 3 36 2v1h-12v2h-3v4l2 1 1 2 6 2v1h-20l-28-4-37-8-16-6-29-14-17-10-10-8-5-3-12-11-8-7-8-8-7-8-1-3h-2l-8-13-6-11-3-5-1-6-3-1-4-6-2-8v-2h-3l-1-3z" fill="#A4C2C6"/>
<path transform="translate(454,404)" d="m0 0h2l12 31 8 20 6 18-1 3-8-4-6-1 3-2-5-18-10-26-4-5-4 6-9 7-10 6-4 2v2l-14 11-10 8-12 9-10 8-13 10-10 7-11 10-8 7-2 4-2 3-4-10-2-10 16-12 13-10 13-9 17-13 20-14 14-11 14-10 13-10z" fill="#A9C6C8"/>
<path transform="translate(235,437)" d="m0 0 5 1 23 8 22 8-1 4-10 9-8 7-4 4-5-2-9-8-9-7-14-13-1-5 6-2z" fill="#F5F7EC"/>
<path transform="translate(548,566)" d="m0 0 7 6 15 15 8 7 16 15 29 29 2 1v2l4 2 35 35 8 7 17 16 11 11 8 7 8 9 8 7 19 19 4 5 8 7 8 11 1 4-4-2-11-11-8-7-13-13-7-8-28-28-8-7-16-17-4-3v-2l-4-2-15-15-8-7-35-35-6-5-7-8-28-28-8-7-5-6z" fill="#5B8796"/>
<path transform="translate(365,319)" d="m0 0 5 1 30 18 11 7-2 4-9 7-5-1v-2l-5-1-5-5-10-7-15-8-4-3 1 7-7 8-7 7-11 15-11 16h-2v2h-2l-1 2h-2l2-6 8-15 12-17 11-12 11-11z" fill="#A4C2C6"/>
<path transform="translate(812,445)" d="m0 0 2 1-1 5-2 4-5 4-2 5-6 5-4 2-4 1 2-3 2-2h-7v4l-5 4-12 3-13-1-1 1h-24l-16-5-2-1 1-3 7 3h4v2h18l3-2-3-1h-15l-5-1 1-4-2-2 7 1 8 1h18l10-2 20-8 9-7h3l3 3z" fill="#A8C5C8"/>
<path transform="translate(608,289)" d="m0 0 3 1 8 11 6 8-5 1v-3l-2-1v2l-4 2-4 4-5 4-7 6-5 4-5 1-3 3-7-6-5-7 1-5 19-14z" fill="#5B8796"/>
<path transform="translate(308,513)" d="m0 0h2v50l-9 7h-2l-4-11-3-11-3-7-3-11v-8l15-6z" fill="#EEF2E8"/>
<path transform="translate(701,583)" d="m0 0 21 1 7 2 6 6 4 20v10l-11-3-10-5-5-4-8-11-4-13z" fill="#CAD2C7"/>
<path transform="translate(784,583)" d="m0 0h7l-2 11-7 12-8 8-10 5-6 2h-5l2-27 6-3 5-6z" fill="#C9D2C7"/>
<path transform="translate(782,802)" d="m0 0 2 4-5 15-8 11-10 7-9 4-8 1h-15l-11-4-11-7-1-2-7-4v-4l9-2 14 8 10 3 11 1 10-2 14-7 7-7 6-10z" fill="#97BBC0"/>
<path transform="translate(736,532)" d="m0 0h3v9l-2 16-6 4-3 6-21 2h-6l2-10 5-9 9-9 10-6z" fill="#CBD3C8"/>
<path transform="translate(752,533)" d="m0 0h7l12 6 7 6 7 9 4 8 1 7-21-1-4-1-4-6-5-5-2-6z" fill="#CBD2C7"/>
<path transform="translate(473,491)" d="m0 0 4 2 9 8 7 11 10 24 4 11 1 1 8-1 11-6 4-2 3 12-6 8h-2v2l-10 5h-6v-2h-2l-1-4h-2l-3-4-1-10-2-7-8-16v-4h-2l-9-13-5-10-3-4z" fill="#7BACB7"/>
<path transform="translate(328,544)" d="m0 0 5 4 8 10 8 8 13 10 15 10 29 13 16 4 22 3 8 2 16 1 1 3-3 1-30-1-20-4-7-2-12-4-11-6-16-8-12-9-13-11-7-6-5-7-4-1 1 3-1 6-2-2v-13z" fill="#5C8897"/>
<path transform="translate(318,454)" d="m0 0h6l3 5-1 5-8 7-14 9-11 2-9 2-5 1 2-3 2 1v-3l4-1-3-7v-10l-2-1 4-1v-2l8-1 4 1-4 5-3 3 6-2z" fill="#0E273B"/>
<path transform="translate(406,525)" d="m0 0h3l3 8 11 13 29 29 8 7 3 3-12 1-11-7-6-5v-2h-2l-7-8-7-7-9-13-4-6-1-9z" fill="#A4C3C6"/>
<path transform="translate(310,283)" d="m0 0 11 7 16 10 11 8-2 5-8 9-6-3-4-6-5-2-6-8-8-5-8-2 2-6z" fill="#5C8897"/>
<path transform="translate(301,292)" d="m0 0h2l-1 3 9 3 4 2v2l4 2 4 5v2l6 2 3 4v2l5 2-2 5-4 3-7-8-8-6-8-8-11-5-5 8-5 4-10 13-1 2h-2l-1 4-8 14-5 9-4 2 2-6 11-20 7-11 11-14 9-10z" fill="#7BABB6"/>
<path transform="translate(653,768)" d="m0 0 4 2 50 50v2l-8 2h-3l-19-19-2-1v-2h-2v-2l-4-2-8-8 1-2-3-5v-5l-3-6h-2z" fill="#A6C4C7"/>
<path transform="translate(391,671)" d="m0 0 7 1 5 2 19 4h9l1-6h-5v-1h11l36 2v1h-12v2h-3v4l2 1 1 2 6 2v1h-20l-28-4-29-6-2-2z" fill="#A6C4C7"/>
<path transform="translate(482,603)" d="m0 0 39 39v2l-9 4-4-1-4-7-5-4-7-8-14-15-5-1 1-2-2-2h6l3-3z" fill="#5B8796"/>
<path transform="translate(767,336)" d="m0 0 9 2 11 6 9 7 8 9 8 13 4 12 1 5v16l-3 9-2-4-1-23-6-7-2-11v-4l-3-1-3-3-2-1-1-3-3-3-7-4-1-2-3-1-2-5-5-3-5-1z" fill="#0C2539"/>
<path transform="translate(381,328)" d="m0 0 6 2 13 8 11 7-2 4-9 7-5-1v-2l-5-1-5-5-10-7-3-3 3-2 2-3 2-1v-2z" fill="#98BCC1"/>
<path transform="translate(684,440)" d="m0 0 3 3 3 5 5 5 1-6 5 2 13 9 11 5 1 4h-2v3h20l4 2-1 2-7 1h-9l-5-1v-2h-2l-1 2-8-4-3 1-12-8-5-5-7-8-4-7z" fill="#97BCC1"/>
<path transform="translate(569,428)" d="m0 0 4 2 1 10-4 6-5 5-7 3h-11l-3-1-1 8h-1v-16l16-9z" fill="#B6CDCC"/>
<path transform="translate(558,326)" d="m0 0 5 5 9 11 10 14 8 13 5 13v2h-3l-1-4h-2l-7-11-16-20v-2h-2v-2l-4-2-3-5-2-4-2-1v-4z" fill="#94B8BE"/>
<path transform="translate(456,425)" d="m0 0 7 2 1-2 11 27 7 21-1 3-8-4-6-1 3-2-5-18-9-23z" fill="#A0BFC4"/>
<path transform="translate(812,445)" d="m0 0 2 1-1 5-2 4-5 4-2 5-6 5-4 2-4 1 2-3 2-2h-7v4l-3 3h-2l-1-9 3-8 10-7 3-2 4 4z" fill="#B7CFCD"/>
<path transform="translate(678,428)" d="m0 0 3 3 6 16 4 5v2l-2 2-1 10h-1v-6l-7-1-7-3-2-5-1-4-1-5 3-7 3-3z" fill="#B6CECD"/>
<path transform="translate(261,526)" d="m0 0h5l3 5 9 21 3 11-1 4-8-10-8-11-8-15-1-4z" fill="#5B8796"/>
<path transform="translate(217,463)" d="m0 0 2 1v11l3 15 5 17 5 13v2l-4 1-8-15-6-15-2-10v-13h4z" fill="#9BBCC1"/>
<path transform="translate(392,663)" d="m0 0 26 5 12 2 2 2-1 6-9 1-23-5-9-4-1-4h3z" fill="#97BBC0"/>
<path transform="translate(266,254)" d="m0 0 14 8 14 10v3l-7 7-7-4-6-5v-2h-2l-5-9z" fill="#97BBC0"/>
<path transform="translate(324,573)" d="m0 0 2 4v5l-5 12-6 9-7-6-4-4v-5l10-7 9-7z" fill="#7BACB7"/>
<path transform="translate(219,464)" d="m0 0 7 6 7 7 2 1v2l4 2 4 3v2l4 2 1 3-4 3h-2l-1 2-4-9-2-7h-2v-2l-5 3-1 13-3-1-3-7h-1l-2-12v-9z" fill="#1E384A"/>
<path transform="translate(289,457)" d="m0 0h9l-4 6-3 3 1 2h-2v5l6 1v-3l5 1 7 2 1 3-5 3-11 2-9 2-5 1 2-3 2 1v-3l4-1-3-7v-10l-2-1 4-1v-2z" fill="#1F394B"/>
<path transform="translate(454,404)" d="m0 0h2l7 18v5l-5-1-4-2-3-4-4 6-2 1-5-5-2-5 9-7z" fill="#A6C4C7"/>
<path transform="translate(470,229)" d="m0 0h9l34 6 16 5 8 4v3l-4 1-15-6-24-5-7-1v-2l-11-1-8-2z" fill="#79AAB5"/>
<path transform="translate(542,399)" d="m0 0 4 1 8 8 3 4-1 5-12 9h-3v-26z" fill="#F3F5EB"/>
<path transform="translate(444,252)" d="m0 0 5 1 6 5 2 3v3l-10 8-15-8 1-3z" fill="#F0F3E9"/>
<path transform="translate(605,226)" d="m0 0h7l9 3 4 6v11l-3 6-4-1-5-12-8-11z" fill="#EEF2E9"/>
<path transform="translate(752,533)" d="m0 0h7l12 6 7 6 7 9 4 8 1 7h-8l-4-2 5-2-3-13-2-3-6-1-1-6-10-4v2l-3 3-1 2v8l2 3-4-1-3-18z" fill="#E7EDE4"/>
<path transform="translate(365,319)" d="m0 0 5 1 11 7v2h-2l1 3-3 1-5 5-12-6-5-4z" fill="#A6C4C7"/>
<path transform="translate(552,330)" d="m0 0 3 1h-2l2 2 2 1 3 7 2 4h-3l-1 3-6 3-6-2-2-4-2 4v-11l8-7z" fill="#B8CFCD"/>
<path transform="translate(534,534)" d="m0 0 6 1 8 7 5 5-15 6-4-2-4-13 4-2z" fill="#1F394B"/>
<path transform="translate(545,663)" d="m0 0 4 2 24 22 9 9v2l-7-1-6-2-3-3v-7l-3-2-6-2-5-7v-2h-2v-2l-4-1z" fill="#9FBFC3"/>
<path transform="translate(473,491)" d="m0 0 4 2 9 8 7 11 8 19-1 2-6-7-3-5v-2h-2l-9-13-5-10-3-4z" fill="#5B8796"/>
<path transform="translate(677,409)" d="m0 0 2 2 3 11 4 9 8 11 5 6-2 1-1 5-5-3-4-5-2-5-2-1-4-11-2-9z" fill="#78A8B3"/>
<path transform="translate(735,552)" d="m0 0h1v6l-5 3-3 6-21 2h-6l2-10 3 1v4l10-1 2-3h2v-2l7-1 5 1v-2h3z" fill="#F0F3EA"/>
<path transform="translate(455,488)" d="m0 0h13l5 2 1 4 4 5 2 7-10-10-8-3h-12l-5 2-5 4h-2l-2 4-3 1-3 9-2 1 1-6 7-10 7-6 7-3z" fill="#76A7B2"/>
<path transform="translate(650,565)" d="m0 0 1 2-2 5-4 9-6 9h-2v2h-2l-2 5-8 7-5-1 6-8 10-11z" fill="#A5C2C5"/>
<path transform="translate(618,306)" d="m0 0 3 1-1 3-4-1v2l2 1-3 1-1 3-2-1-2 4-12 11-5 6-4 3-4-5v-3h2l1-3 6-2 7-6h2l1-3 3-1 2-3 4-1 2-4h3z" fill="#7BACB7"/>
<path transform="translate(640,250)" d="m0 0h1v10l-1 5-5 11h-2l1 8-2 1-2 3-6-6v-5l9-10 5-11z" fill="#C2CEC6"/>
<path transform="translate(469,335)" d="m0 0h6l4 5v7h-2l-2 4-8-1-3-3v-7z" fill="#0F283D"/>
<path transform="translate(426,370)" d="m0 0h7l4 5-1 6-4 3-5 1-5-3-2-2 1-6z" fill="#0D263B"/>
<path transform="translate(678,428)" d="m0 0 3 3 2 8-6 5h-2l-1 4 2 2-2 1 5 5 4 1v2l-6-1-4-2-2-5-1-4-1-5 3-7 3-3z" fill="#A3C2C6"/>
<path transform="translate(406,385)" d="m0 0 5 1 3 4v6l-3 4-6 1-6-6v-5l4-4z" fill="#0E273B"/>
<path transform="translate(449,351)" d="m0 0 5 1 2 6v6l-4 4h-5l-5-5 1-7z" fill="#0E273B"/>
<path transform="translate(744,568)" d="m0 0h6l5 4v6l-6 5-5-1-4-4v-6z" fill="#F2F4EA"/>
<path transform="translate(679,367)" d="m0 0 2 3 4-1-3 9-4 13-1 7h-1v-9l-3 2-3-9h-2l1-2 5-5 4-5z" fill="#5B8796"/>
<path transform="translate(465,448)" d="m0 0 3 4 2 5 4 2 1 1v-5l2 3 5 15-1 3-8-4-6-1 3-2-5-18z" fill="#86B6BE"/>
<path transform="translate(502,366)" d="m0 0 2 1-3 3 3 3-13 9-4 5-9 6h-2l2-5 1-3 14-11z" fill="#DEE5DB"/>
<path transform="translate(558,326)" d="m0 0 5 5 7 9-1 3-3 2-5-1-4-6-2-4-2-1v-4z" fill="#A3C1C5"/>
<path transform="translate(220,493)" d="m0 0 3 1 6 18 3 10-4 1-8-15-3-9 3-3z" fill="#A0C0C4"/>
<path transform="translate(415,553)" d="m0 0 17 17v2h2l5 5 7 6v2h-7l-5-3v-2h-2l-2-7-9-9-2-4-4-4z" fill="#FAFAEF"/>
<path transform="translate(384,402)" d="m0 0 5 1 2 2v9l-4 3-5-1-4-4 1-5z" fill="#0E273C"/>
<path transform="translate(406,525)" d="m0 0h3l3 8 7 9-2 4-4-2h-4l-4-6-1-9z" fill="#A4C2C6"/>
<path transform="translate(571,440)" d="m0 0 2 2-5 7-10 5h-8v-5l4-3 8-1z" fill="#A9C6C8"/>
<path transform="translate(570,341)" d="m0 0 5 5 5 7-2 4v5h-2l-9-12-1-3h-2v-2l4-1 1-2z" fill="#80B3BD"/>
<path transform="translate(455,407)" d="m0 0h2l6 15v5l-5-1-4-2-3-4-2-1 1-5h2z" fill="#B3CCCB"/>
<path transform="translate(281,318)" d="m0 0 1 2-6 9h-2l-1 4-8 14-5 9-4 2 2-6 11-20 7-11z" fill="#74A3AF"/>
<path transform="translate(752,533)" d="m0 0h7l12 6 1 2-6-1-5-2v2l-3 3-1 2v8l2 3-4-1-3-18z" fill="#E4EBE3"/>
<path transform="translate(490,321)" d="m0 0 5 1 3 4-1 5-4 4-5-1-2-2v-6z" fill="#142E42"/>
<path transform="translate(406,244)" d="m0 0 2 2v4l5-1 4-2 2-3h4l-1 3-6 4-4 4-9-3-7-2v-3l9-2z" fill="#A7C5C7"/>
<path transform="translate(480,603)" d="m0 0h2l-2 5-5 1-2 3h-4l-1-2-16-1-6-1v-1l26-2z" fill="#7AABB6"/>
<path transform="translate(237,533)" d="m0 0 3 4 8 16 6 9-1 2-2 1-1-4-3-1-4-6-2-8v-2h-3l-1-3z" fill="#8CB2B9"/>
<path transform="translate(470,229)" d="m0 0h9l23 4-2 2h-13l-19-4z" fill="#5C8897"/>
<path transform="translate(620,736)" d="m0 0 4 1 18 18-1 3h-5l-2-7-4-2-6-8-4-3z" fill="#A3C3C6"/>
<path transform="translate(518,237)" d="m0 0 9 2 10 5v3l-4 1-17-7z" fill="#5C8897"/>
<path transform="translate(641,580)" d="m0 0 1 2-4 5h-2v3l-4 4-2 3v3l-5 4-5-1 6-8 10-11z" fill="#B3CBCA"/>
<path transform="translate(234,479)" d="m0 0 5 3 4 3v2l4 2 1 3-4 3h-2l-1 2-4-9z" fill="#5D8A98"/>
<path transform="translate(213,478)" d="m0 0h2l3 13h2l1-4 1 6-1 5-3 2-2-1-4-13v-7z" fill="#98BBC1"/>
<path transform="translate(640,250)" d="m0 0h1v10l-1 5-5 11-4-2v-5l5-8z" fill="#B6CDCC"/>
<path transform="translate(601,718)" d="m0 0 5 1 5 5v2l4 2 6 7h-4l-5-5-10-7-2-1z" fill="#9ABABF"/>
<path transform="translate(410,234)" d="m0 0 3 1-1 3-21 6-6-2 3-2z" fill="#7BADB8"/>
<path transform="translate(687,554)" d="m0 0h1l-1 12-1 2-14 1-3 3-1 3h-2l1-4 1-2h2l1-3 8-2 5-3z" fill="#ECF1E8"/>
<path transform="translate(255,358)" d="m0 0 2 1-1 5-8 20-3 6-3 2 3-10 8-19z" fill="#72A1AE"/>
<path transform="translate(671,368)" d="m0 0 5 1 1 3-4 6h-2l-1 3-3-3-2-6h2l1-3z" fill="#1E384A"/>
<path transform="translate(586,703)" d="m0 0 4 1 13 13-4 1-3-3-7-2-2-5z" fill="#A5C3C7"/>
<path transform="translate(703,451)" d="m0 0 9 6-1 4-5 1v-2l-5-1-3-3v-2h2v-2z" fill="#7EAEB9"/>
<path transform="translate(450,228)" d="m0 0h14l6 1 3 2 14 3v1l-14-1-15-2-3-2-5-1z" fill="#77A7B2"/>
<path transform="translate(627,311)" d="m0 0 5 5 7 11 3 4-1 2-10-10-5-9z" fill="#5B8796"/>
<path transform="translate(465,456)" d="m0 0h2l4 14-15 1-9 1 4-3 16-2-1-1z" fill="#F7F8ED"/>
<path transform="translate(570,341)" d="m0 0 5 5 1 4-8 1-2-4h-2v-2l4-1 1-2z" fill="#93B8BE"/>
<path transform="translate(521,671)" d="m0 0h9l-2 2-12 4-11 2v-3z" fill="#A9C6C9"/>
<path transform="translate(325,371)" d="m0 0 2 2-6 9h-2v2h-2l-1 2h-2l2-6 3-6h3z" fill="#A0BFC3"/>
<path transform="translate(410,543)" d="m0 0 5 1h3 3l-1 5h-2v5l-3-1-5-7z" fill="#9ABDC2"/>
<path transform="translate(443,492)" d="m0 0 3 1-5 5-3 1-2 4-3 1-3 9-2 1 1-6 7-10z" fill="#6F9EAB"/>
<path transform="translate(781,458)" d="m0 0 4 2h-2v4l-9 2h-5v-3z" fill="#ADC7C8"/>
<path transform="translate(458,234)" d="m0 0h7l3 10 1 2-4-2-8-7z" fill="#9EBEC3"/>
<path transform="translate(543,454)" d="m0 0 2 1h9l-3 3-4 2h-3v8l-2 4v-11z" fill="#FBFBF0"/>
<path transform="translate(736,606)" d="m0 0h2l1 6v10l-9-3v-1h6z" fill="#D4E0DB"/>
<path transform="translate(783,437)" d="m0 0h3l-2 4-5 4-10 5-9 1 2-2 14-5 5-4h2z" fill="#E9EFE6"/>
<path transform="translate(572,557)" d="m0 0 1 2 5-1-2 6-1 2-4-2-3-2 1-4z" fill="#A6C4C7"/>
<path transform="translate(324,573)" d="m0 0 2 4v5l-3 3-4-3-1-4z" fill="#5D8A98"/>
<path transform="translate(328,544)" d="m0 0 3 2 1 8h-3l1 3-1 6-2-2v-13z" fill="#71A1AD"/>
<path transform="translate(313,387)" d="m0 0 3 4-3 9-3 3-2 3 1-7z" fill="#9EBDC1"/>
<path transform="translate(328,364)" d="m0 0 2 1v2h-2v5l-4 1-4 3 1-6 5-5z" fill="#ABC7C8"/>
<path transform="translate(596,334)" d="m0 0 2 2-1 8-4 1-2-3 1-4z" fill="#AAC7C9"/>
<path transform="translate(603,293)" d="m0 0 2 2-3 6-9 1 1-3z" fill="#7AAAB6"/>
<path transform="translate(244,552)" d="m0 0 4 1 6 9-1 2-2 1-1-4-3-1-4-7z" fill="#94B7BD"/>
<path transform="translate(284,267)" d="m0 0 5 1 6 5-4 4-3-3z" fill="#A0C0C4"/>
<path transform="translate(592,533)" d="m0 0 2 2-5 6h-2l-1 5-3 4-2-1 2-5z" fill="#5B8796"/>
<path transform="translate(677,382)" d="m0 0h2l-1 9-1 7h-1v-9l-3 2v-7z" fill="#74A4B0"/>
<path transform="translate(266,254)" d="m0 0 9 5-2 4-5 1z" fill="#8BB8C0"/>
<path transform="translate(459,432)" d="m0 0 3 4 3 5 3 8-1 3-3-3-5-13z" fill="#9ABDC2"/>
<path transform="translate(696,764)" d="m0 0 10 5-2 2-2 1h-6l1-5z" fill="#7EB0BB"/>
<path transform="translate(538,555)" d="m0 0 10 10 1 5-7-6-4-5z" fill="#74A4B0"/>
<path transform="translate(720,444)" d="m0 0 5 1 9 4 2 2-9-1-7-4z" fill="#E8EEE5"/>
<path transform="translate(799,453)" d="m0 0 1 2 3 1-1 2h-2v2l-5-1-2-4z" fill="#CAD2C7"/>
<path transform="translate(796,448)" d="m0 0 4 4-1 2-7 2h-2l-3-1 8-6z" fill="#91B4BA"/>
<path transform="translate(632,276)" d="m0 0 2 4v4l-2 1-2 3-3-4v-2h3l1-5z" fill="#B9D0CE"/>
<path transform="translate(418,244)" d="m0 0h5l-1 3-6 4-4 4-4-2 3-1 4-4 2-1z" fill="#9DBDC1"/>
<path transform="translate(511,313)" d="m0 0h5l1 1v5l-4 1-3-3z" fill="#CCD3C7"/>
<path transform="translate(771,541)" d="m0 0 5 2 5 7-9-2z" fill="#ECF1E9"/>
<path transform="translate(679,367)" d="m0 0 2 3 4-1-3 9h-2v-2l-3-1 1-1z" fill="#7DABB5"/>
<path transform="translate(263,345)" d="m0 0 2 2-5 9-4 2 2-6 3-6z" fill="#71A0AD"/>
<path transform="translate(580,548)" d="m0 0 2 1-2 5-3 3-4-1 6-7z" fill="#72A1AD"/>
<path transform="translate(300,480)" d="m0 0 2 1-8 3-11 1 3-3z" fill="#94B2B5"/>
<path transform="translate(811,420)" d="m0 0 1 3-3 10h-3l1-6z" fill="#1F394B"/>
<path transform="translate(500,371)" d="m0 0 4 2-11 8-2-1 4-5z" fill="#CCD3C7"/>
<path transform="translate(618,306)" d="m0 0 3 1-1 3-4-1v2l2 1-3 1-1 3-2-1 2-6 4-1z" fill="#7EAFBA"/>
<path transform="translate(454,585)" d="m0 0h9l1 3h-11z" fill="#DAE2D9"/>
<path transform="translate(217,479)" d="m0 0 2 4 1 8h-2l-3-9v-2z" fill="#A9C6C9"/>
<path transform="translate(211,457)" d="m0 0 6 5v10h-1l-1-7-1-3-4-2z" fill="#B6CECD"/>
<path transform="translate(319,382)" d="m0 0 2 1-4 9-3-2 1-5 4-1z" fill="#B8D0CE"/>
<path transform="translate(255,358)" d="m0 0 2 1-1 5-2 5-4 2 2-6z" fill="#6D9CA9"/>
<path transform="translate(406,525)" d="m0 0h3l1 8-3-1v-2h-2l-1 2 1-6z" fill="#AFC9C9"/>
<path transform="translate(328,565)" d="m0 0h1v7l-2 6-2-1 1-9z" fill="#74A4B0"/>
<path transform="translate(696,418)" d="m0 0 2 1 5 9 3 5-4-2-6-10z" fill="#DFE7DF"/>
<path transform="translate(709,754)" d="m0 0h3l3 6 3 2-4 2-3-3-1-5z" fill="#83B8C1"/>
<path transform="translate(695,751)" d="m0 0h2l-1 4-7 3 1-4h-2v-2l4 1z" fill="#7EB0BB"/>
<path transform="translate(605,588)" d="m0 0 3 1-2 4-3 2-4-4 1-2 4 1z" fill="#A1BFC1"/>
<path transform="translate(600,521)" d="m0 0 1 3-6 11-2-1 2-5z" fill="#73A2AF"/>
<path transform="translate(787,466)" d="m0 0 7 1-1 3-5 1-2-4z" fill="#C8D2C8"/>
<path transform="translate(735,416)" d="m0 0 5 3 7 3v1h-7l-5-5z" fill="#618E9C"/>
<path transform="translate(766,351)" d="m0 0 6 1 10 6-1 2-12-7z" fill="#EAEFE5"/>
<path transform="translate(767,336)" d="m0 0 9 2 2 1-1 3-9-3z" fill="#0E273B"/>
<path transform="translate(386,592)" d="m0 0 6 1 5 2v2l-8-1-1-3z" fill="#75A5B0"/>
<path transform="translate(636,589)" d="m0 0 1 3h-2l-2 5-4 1 5-8z" fill="#A7C5C8"/>
<path transform="translate(640,250)" d="m0 0h1v10l-5 3 3-10z" fill="#A3BFC2"/>
</svg>
