<?xml version="1.0" encoding="UTF-8"?>
<svg xmlns="http://www.w3.org/2000/svg" xmlns:xlink="http://www.w3.org/1999/xlink" width="320px" height="320px" viewBox="0 0 320 320" version="1.1">
<g id="surface1">
<rect x="0" y="0" width="320" height="320" style="fill:rgb(79.607844%,82.352942%,77.64706%);fill-opacity:1;stroke:none;"/>
<path style=" stroke:none;fill-rule:nonzero;fill:rgb(4.705882%,14.117648%,22.352941%);fill-opacity:1;" d="M 187.1875 65.3125 L 192.5 65.3125 L 196.25 66.875 L 198.4375 68.75 L 200.3125 71.875 L 200.625 73.75 L 200.625 76.5625 L 199.375 80.9375 L 197.8125 83.75 L 195.3125 86.5625 L 195.3125 88.125 L 198.75 91.875 L 201.5625 95.3125 L 204.375 99.0625 L 207.1875 103.75 L 210.3125 109.375 L 212.5 114.6875 L 212.8125 115.625 L 214.0625 115 L 217.5 110.625 L 220 108.125 L 221.875 107.8125 L 222.1875 106.5625 L 229.0625 104.0625 L 233.75 104.0625 L 236.25 103.75 L 242.5 105.625 L 245.9375 107.5 L 248.75 109.6875 L 251.25 112.5 L 253.75 116.5625 L 255 120.3125 L 255.3125 121.875 L 255.3125 126.875 L 254.375 130.9375 L 253.4375 133.4375 L 252.8125 135.625 L 254.375 137.5 L 254.0625 139.0625 L 250.3125 141.5625 L 248.75 140.3125 L 246.5625 142.1875 L 242.8125 144.0625 L 238.4375 145.625 L 236.25 145.9375 L 230.625 145.9375 L 226.5625 145.3125 L 226.875 145.9375 L 226.25 145.9375 L 226.25 146.875 L 232.5 146.875 L 233.75 147.5 L 233.4375 148.125 L 231.25 148.4375 L 228.4375 148.4375 L 226.875 148.125 L 226.875 147.5 L 226.25 147.5 L 225.9375 148.125 L 223.4375 146.875 L 222.5 147.1875 L 218.75 144.6875 L 217.1875 143.125 L 215 140.625 L 213.4375 137.5 L 212.1875 134.0625 L 210.9375 135.625 L 210 136.25 L 209.375 138.75 L 209.6875 140.3125 L 210.3125 141.5625 L 210.3125 142.5 L 213.4375 143.4375 L 214.6875 143.75 L 214.6875 146.5625 L 212.5 156.875 L 210 164.375 L 206.5625 171.5625 L 203.75 176.25 L 200.625 180.3125 L 198.125 183.4375 L 194.375 187.8125 L 193.125 189.0625 L 193.4375 190.625 L 194.6875 191.25 L 204.0625 200.625 L 206.5625 202.8125 L 212.5 208.75 L 215 210.9375 L 222.8125 218.75 L 225.3125 220.9375 L 227.5 223.125 L 229.6875 225 L 231.875 227.5 L 237.1875 232.8125 L 239.375 234.6875 L 242.8125 239.0625 L 244.375 241.875 L 245 243.75 L 245 249.375 L 243.75 252.8125 L 241.875 255.625 L 239.6875 257.8125 L 235.3125 260 L 231.25 260.625 L 227.5 260 L 223.75 258.4375 L 220.625 256.25 L 208.125 243.75 L 208.125 243.125 L 206.875 242.5 L 190 225.625 L 185.9375 221.875 L 185.625 220.9375 L 184.375 220.3125 L 176.5625 212.5 L 174.0625 210.3125 L 169.6875 206.25 L 169.6875 205.625 L 166.875 206.25 L 160.9375 207.8125 L 152.8125 209.6875 L 150.625 210 L 141.875 210.3125 L 134.375 209.6875 L 125.9375 208.125 L 121.25 206.875 L 115.625 205 L 104.0625 199.375 L 99.0625 195.9375 L 95.3125 193.125 L 90.9375 189.375 L 89.0625 187.8125 L 86.875 185.3125 L 83.125 181.25 L 80 177.1875 L 76.875 172.1875 L 74.375 167.1875 L 72.1875 162.5 L 70 156.5625 L 68.4375 150.625 L 68.125 148.4375 L 68.125 145 L 64.6875 141.5625 L 63.75 139.375 L 64.0625 137.1875 L 66.875 134.6875 L 67.8125 134.0625 L 69.0625 125.625 L 70.9375 118.75 L 73.125 112.8125 L 75.3125 108.125 L 77.8125 103.75 L 79.375 100.9375 L 81.875 97.1875 L 85.9375 91.875 L 89.375 88.125 L 91.875 85.625 L 90.3125 84.0625 L 83.4375 79.6875 L 82.8125 78.75 L 82.8125 75.625 L 84.6875 73.4375 L 87.8125 71.25 L 91.25 69.0625 L 93.125 68.75 L 100.3125 70.625 L 107.5 72.8125 L 110 73.75 L 111.5625 73.4375 L 116.5625 70.9375 L 123.125 68.75 L 132.5 66.5625 L 137.8125 65.9375 L 146.875 65.9375 L 153.125 66.5625 L 161.5625 68.125 L 168.125 70 L 172.8125 71.875 L 174.0625 71.5625 L 176.25 69.6875 L 179.6875 67.8125 L 182.1875 66.5625 Z M 187.1875 65.3125 "/>
<path style=" stroke:none;fill-rule:nonzero;fill:rgb(52.549022%,73.333335%,77.254903%);fill-opacity:1;" d="M 190 90.3125 L 190.9375 90.625 L 193.4375 94.0625 L 196.25 97.1875 L 199.0625 101.25 L 202.5 106.25 L 205.625 111.875 L 209.0625 118.75 L 210.625 117.1875 L 211.875 115.625 L 212.5 114.6875 L 212.8125 115.625 L 214.0625 115 L 217.5 110.625 L 220 108.125 L 221.875 107.8125 L 222.1875 106.5625 L 229.0625 104.0625 L 233.75 104.0625 L 236.25 103.75 L 242.5 105.625 L 245.9375 107.5 L 248.75 109.6875 L 251.25 112.5 L 253.75 116.5625 L 255 120.3125 L 255.3125 121.875 L 255.3125 126.875 L 254.375 130.9375 L 253.4375 133.4375 L 252.8125 135.625 L 254.375 137.5 L 254.0625 139.0625 L 250.3125 141.5625 L 248.75 140.3125 L 246.5625 142.1875 L 242.8125 144.0625 L 238.4375 145.625 L 236.25 145.9375 L 230.625 145.9375 L 226.5625 145.3125 L 226.875 145.9375 L 226.25 145.9375 L 226.25 146.875 L 232.5 146.875 L 233.75 147.5 L 233.4375 148.125 L 231.25 148.4375 L 228.4375 148.4375 L 226.875 148.125 L 226.875 147.5 L 226.25 147.5 L 225.9375 148.125 L 223.4375 146.875 L 222.5 147.1875 L 218.75 144.6875 L 217.1875 143.125 L 215 140.625 L 213.4375 137.5 L 212.1875 134.0625 L 210.9375 135.625 L 210 136.25 L 209.375 138.75 L 209.6875 140.3125 L 210.3125 142.1875 L 209.6875 144.0625 L 208.125 152.5 L 205.625 160.625 L 202.8125 167.1875 L 200 172.1875 L 196.25 177.5 L 192.8125 181.5625 L 190 184.6875 L 188.4375 185.9375 L 180.3125 177.8125 L 177.5 175.625 L 177.8125 174.375 L 181.5625 170.9375 L 184.0625 167.8125 L 187.1875 163.4375 L 190.3125 157.8125 L 192.8125 150.9375 L 194.0625 145 L 194.375 142.5 L 194.375 132.1875 L 192.8125 124.375 L 191.25 119.375 L 189.375 114.6875 L 186.5625 109.6875 L 183.4375 105 L 180.3125 101.5625 L 179.0625 99.6875 L 179.375 98.125 L 185.3125 93.75 Z M 190 90.3125 "/>
<path style=" stroke:none;fill-rule:nonzero;fill:rgb(52.549022%,73.725492%,77.254903%);fill-opacity:1;" d="M 142.1875 152.5 L 146.25 152.5 L 148.75 153.75 L 151.875 156.5625 L 154.0625 160 L 157.1875 167.5 L 158.4375 170.9375 L 158.75 171.25 L 161.25 170.9375 L 164.6875 169.0625 L 165.9375 168.4375 L 167.1875 172.1875 L 171.5625 176.875 L 178.125 183.4375 L 180.625 185.625 L 185.625 190.3125 L 194.6875 199.375 L 195.3125 199.6875 L 195.3125 200.3125 L 196.5625 200.9375 L 207.5 211.875 L 210 214.0625 L 215.3125 219.0625 L 218.75 222.5 L 221.25 224.6875 L 223.75 227.5 L 226.25 229.6875 L 232.1875 235.625 L 233.4375 237.1875 L 235.9375 239.375 L 238.4375 242.8125 L 239.375 245.3125 L 239.375 249.375 L 238.125 252.1875 L 235.625 254.375 L 233.75 255 L 229.375 255 L 225.625 253.4375 L 221.875 250 L 219.6875 247.5 L 212.8125 240.625 L 210.9375 239.0625 L 209.375 237.1875 L 207.8125 235.625 L 205.9375 234.0625 L 204.375 232.1875 L 201.875 230 L 191.875 220 L 189.375 217.8125 L 182.1875 210.625 L 179.6875 208.4375 L 175.625 204.6875 L 173.125 202.5 L 168.4375 198.125 L 165.9375 195.9375 L 149.6875 179.6875 L 147.1875 177.5 L 143.75 174.0625 L 142.5 172.5 L 140.3125 170.625 L 138.75 169.0625 L 135.9375 165.9375 L 133.75 163.75 L 133.4375 162.8125 L 133.4375 160.625 L 134.6875 157.8125 L 136.5625 155.3125 L 139.0625 153.4375 Z M 142.1875 152.5 "/>
<path style=" stroke:none;fill-rule:nonzero;fill:rgb(96.862745%,97.254902%,93.333334%);fill-opacity:1;" d="M 185 70.9375 L 185.3125 70.9375 L 185.625 73.4375 L 189.0625 78.4375 L 190.3125 80.9375 L 192.5 81.5625 L 191.875 83.125 L 187.1875 86.5625 L 181.875 90.625 L 176.25 94.6875 L 165.625 102.5 L 161.5625 105.625 L 157.1875 108.75 L 149.375 115 L 144.6875 118.4375 L 141.5625 120.9375 L 137.5 124.0625 L 132.1875 127.8125 L 126.5625 132.1875 L 122.8125 134.6875 L 118.75 137.8125 L 113.125 141.875 L 107.8125 145.625 L 103.4375 149.0625 L 99.0625 152.1875 L 95 155.3125 L 90.3125 157.5 L 85.9375 159.0625 L 84.375 159.375 L 82.1875 159.375 L 80.625 157.8125 L 81.875 156.5625 L 82.5 156.5625 L 82.5 155.9375 L 83.125 155.9375 L 83.75 154.6875 L 85.9375 152.5 L 87.1875 151.5625 L 89.375 150.625 L 93.75 150 L 95.9375 149.0625 L 100.625 145.9375 L 101.875 144.375 L 101.5625 142.5 L 101.25 142.1875 L 99.375 142.1875 L 92.8125 145.3125 L 91.5625 145.9375 L 90.625 145.625 L 91.25 144.6875 L 91.875 144.6875 L 92.5 143.4375 L 95.625 140.625 L 99.0625 137.8125 L 103.125 134.0625 L 109.375 129.375 L 113.4375 126.25 L 117.8125 122.8125 L 123.4375 118.4375 L 128.4375 114.375 L 129.375 114.0625 L 129.375 113.4375 L 133.75 110.3125 L 137.8125 106.875 L 141.25 104.0625 L 146.25 100 L 150 96.875 L 153.4375 94.0625 L 158.125 90.3125 L 163.4375 86.25 L 170.3125 80.625 L 175.9375 76.25 L 180.625 72.8125 L 184.0625 71.25 Z M 185 70.9375 "/>
<path style=" stroke:none;fill-rule:nonzero;fill:rgb(4.705882%,14.117648%,22.352941%);fill-opacity:1;" d="M 234.6875 103.75 L 237.1875 104.0625 L 242.5 105.625 L 245.9375 107.5 L 248.75 109.6875 L 251.25 112.5 L 253.75 116.5625 L 255 120.3125 L 255.3125 121.875 L 255.3125 126.875 L 254.375 130.9375 L 253.4375 133.4375 L 252.8125 135.625 L 254.375 137.5 L 254.0625 139.0625 L 250.3125 141.5625 L 248.75 140.3125 L 246.5625 142.1875 L 242.8125 144.0625 L 238.4375 145.625 L 236.25 145.9375 L 230.625 145.9375 L 227.5 145.3125 L 223.75 143.75 L 220.3125 141.5625 L 217.1875 138.75 L 214.375 135.3125 L 213.125 132.8125 L 212.1875 130 L 211.25 125.9375 L 211.5625 122.1875 L 213.4375 116.5625 L 214.6875 114.0625 L 218.125 110 L 220.625 107.8125 L 221.875 107.8125 L 222.1875 106.5625 L 229.0625 104.0625 L 233.75 104.0625 Z M 234.6875 103.75 "/>
<path style=" stroke:none;fill-rule:nonzero;fill:rgb(4.705882%,14.117648%,22.352941%);fill-opacity:1;" d="M 232.1875 154.0625 L 234.0625 154.0625 L 235.3125 154.6875 L 235.9375 156.25 L 235.9375 161.5625 L 240.625 162.8125 L 244.375 165 L 247.1875 167.1875 L 249.6875 170.625 L 251.25 173.75 L 251.875 176.25 L 251.875 177.5 L 256.25 177.5 L 257.8125 179.0625 L 257.8125 180.9375 L 256.875 182.5 L 256.25 182.8125 L 253.75 182.8125 L 251.5625 182.5 L 251.5625 185 L 250.3125 188.75 L 248.4375 191.875 L 245.9375 194.6875 L 240.9375 197.5 L 237.5 198.75 L 235.625 198.75 L 235.9375 202.5 L 235.9375 205.625 L 234.6875 207.5 L 232.5 207.8125 L 230.625 206.25 L 230.3125 199.0625 L 226.25 197.8125 L 221.5625 195.3125 L 218.4375 192.5 L 216.5625 190 L 215.3125 187.5 L 214.6875 185 L 214.6875 182.5 L 209.6875 182.5 L 208.75 181.25 L 208.4375 179.6875 L 209.375 178.125 L 210 177.5 L 214.375 177.5 L 214.6875 174.6875 L 215.9375 171.5625 L 218.4375 167.8125 L 221.875 164.6875 L 226.5625 162.1875 L 228.75 161.5625 L 230.9375 161.5625 L 230.625 160.3125 L 230.625 155.625 Z M 232.1875 154.0625 "/>
<path style=" stroke:none;fill-rule:nonzero;fill:rgb(79.215688%,82.352942%,77.64706%);fill-opacity:1;" d="M 141.875 126.25 L 142.5 126.25 L 146.25 135.9375 L 148.75 142.1875 L 150.625 147.8125 L 150.3125 148.75 L 147.8125 147.5 L 145.9375 147.1875 L 142.5 147.1875 L 138.125 148.4375 L 135 150.3125 L 132.5 152.1875 L 130.3125 154.6875 L 128.75 157.1875 L 127.8125 160.9375 L 127.8125 164.0625 L 128.75 166.5625 L 132.1875 170.625 L 141.25 179.6875 L 143.75 181.875 L 145 183.125 L 145 183.75 L 144.0625 184.0625 L 137.5 184.0625 L 131.875 183.125 L 125.3125 180.9375 L 120.9375 178.75 L 116.5625 175.9375 L 113.4375 173.4375 L 108.125 168.4375 L 105 164.6875 L 102.8125 160.3125 L 101.875 157.1875 L 102.1875 155.9375 L 106.5625 152.8125 L 110.9375 149.375 L 115 146.5625 L 120.3125 142.5 L 126.5625 138.125 L 130.9375 134.6875 L 135.3125 131.5625 L 139.375 128.4375 Z M 141.875 126.25 "/>
<path style=" stroke:none;fill-rule:nonzero;fill:rgb(52.549022%,73.725492%,77.254903%);fill-opacity:1;" d="M 102.5 170 L 104.0625 171.25 L 106.5625 174.375 L 109.0625 176.875 L 113.125 180 L 117.8125 183.125 L 126.875 187.1875 L 131.875 188.4375 L 138.75 189.375 L 145 189.375 L 150 188.4375 L 151.25 188.75 L 153.4375 191.25 L 162.8125 200.625 L 162.8125 201.25 L 158.4375 203.125 L 153.125 204.375 L 147.5 205 L 140.9375 205 L 131.25 204.0625 L 124.0625 202.5 L 117.8125 200.3125 L 109.375 196.25 L 102.5 191.875 L 99.0625 189.375 L 95 185.3125 L 95 183.75 L 98.125 181.5625 L 100.9375 179.375 L 101.875 177.5 L 102.1875 171.25 Z M 102.5 170 "/>
<path style=" stroke:none;fill-rule:nonzero;fill:rgb(79.215688%,82.352942%,77.64706%);fill-opacity:1;" d="M 174.375 101.875 L 175.9375 103.4375 L 178.75 106.875 L 181.875 111.25 L 184.375 115.3125 L 186.25 120.625 L 186.25 121.5625 L 186.875 121.5625 L 188.4375 126.5625 L 189.375 131.5625 L 189.6875 135.625 L 189.6875 139.375 L 188.75 146.5625 L 187.1875 151.5625 L 185.625 155.625 L 183.75 159.375 L 180.625 164.375 L 180 164.375 L 179.375 165.9375 L 175 170.3125 L 174.0625 170.9375 L 172.1875 170.625 L 169.375 167.8125 L 168.125 166.875 L 168.4375 165 L 169.0625 145 L 169.375 139.0625 L 174.375 136.25 L 177.8125 133.75 L 179.0625 132.5 L 179.375 131.5625 L 179.375 128.75 L 177.5 125 L 175 121.5625 L 172.1875 119.6875 L 169.0625 119.0625 L 169.0625 114.375 L 169.375 105.625 L 171.875 103.4375 Z M 174.375 101.875 "/>
<path style=" stroke:none;fill-rule:nonzero;fill:rgb(52.549022%,73.725492%,77.254903%);fill-opacity:1;" d="M 96.875 88.4375 L 100.3125 90.625 L 105.3125 93.75 L 108.75 96.25 L 108.125 97.8125 L 105 101.25 L 102.1875 104.6875 L 100 107.1875 L 97.1875 111.25 L 94.0625 116.875 L 91.5625 123.125 L 90 130 L 89.0625 136.25 L 87.1875 135.9375 L 75 131.5625 L 73.75 131.25 L 73.75 129.0625 L 75.9375 120.9375 L 78.75 114.0625 L 81.875 107.5 L 85.625 101.25 L 88.4375 97.5 L 91.25 94.0625 Z M 96.875 88.4375 "/>
<path style=" stroke:none;fill-rule:nonzero;fill:rgb(79.607844%,82.352942%,78.039217%);fill-opacity:1;" d="M 231.25 108.125 L 235.9375 108.125 L 240 109.375 L 243.4375 111.25 L 245.3125 112.5 L 245.3125 113.125 L 246.5625 113.75 L 248.4375 116.25 L 250.3125 120 L 250.9375 122.8125 L 250.9375 126.875 L 249.6875 131.5625 L 249.0625 132.5 L 247.5 131.875 L 242.8125 128.125 L 242.8125 127.5 L 241.5625 126.875 L 239.6875 124.6875 L 238.4375 122.8125 L 237.8125 121.5625 L 236.5625 120.9375 L 232.8125 119.375 L 226.5625 117.1875 L 224.375 116.5625 L 225.9375 121.25 L 228.75 127.8125 L 230 130 L 231.5625 131.25 L 235 132.1875 L 240.3125 132.8125 L 241.875 133.4375 L 241.875 134.0625 L 243.125 134.6875 L 245.625 136.25 L 245.3125 137.5 L 243.4375 139.0625 L 240.3125 140.625 L 237.1875 141.5625 L 230.625 141.5625 L 226.5625 140.3125 L 223.125 138.4375 L 220.625 136.25 L 220.625 135.625 L 220 135.625 L 217.5 131.5625 L 216.25 127.5 L 216.25 122.8125 L 217.5 118.75 L 218.75 115.625 L 222.1875 112.1875 L 225.625 110 L 228.4375 108.75 Z M 231.25 108.125 "/>
<path style=" stroke:none;fill-rule:nonzero;fill:rgb(59.607846%,73.725492%,75.686276%);fill-opacity:1;" d="M 74.0625 166.5625 L 75 167.8125 L 77.5 172.8125 L 81.25 178.4375 L 84.6875 182.5 L 88.4375 186.5625 L 89.0625 187.8125 L 90.3125 188.4375 L 94.375 192.1875 L 100.3125 196.5625 L 105.3125 199.6875 L 115.625 204.6875 L 123.125 207.1875 L 130.625 208.75 L 136.875 209.6875 L 145 210 L 150.625 209.6875 L 158.4375 208.125 L 165.9375 206.25 L 169.0625 205.3125 L 170.625 206.875 L 175.625 211.5625 L 178.75 214.375 L 186.5625 222.1875 L 190.9375 226.25 L 190.9375 226.875 L 192.1875 227.5 L 221.25 256.5625 L 225.625 259.0625 L 228.75 260 L 232.1875 260.3125 L 235.3125 259.6875 L 239.6875 257.5 L 241.875 255.3125 L 243.75 252.1875 L 244.375 250.625 L 245 251.875 L 243.4375 256.5625 L 240.9375 260 L 237.8125 262.1875 L 235 263.4375 L 232.5 263.75 L 227.8125 263.75 L 224.375 262.5 L 220.9375 260.3125 L 220.625 259.6875 L 218.4375 258.4375 L 211.5625 251.5625 L 210.9375 251.25 L 210.9375 250.625 L 210.3125 250.625 L 210.3125 250 L 209.0625 249.375 L 205.3125 245.625 L 205.3125 245 L 204.6875 245 L 204.6875 244.375 L 204.0625 244.375 L 204.0625 243.75 L 203.4375 243.75 L 203.4375 243.125 L 202.8125 243.125 L 202.8125 242.5 L 202.1875 242.5 L 200 240 L 187.8125 227.8125 L 186.5625 226.875 L 186.5625 226.25 L 185.3125 225.625 L 181.25 221.875 L 174.6875 215.3125 L 171.5625 212.8125 L 168.125 209.375 L 166.5625 209.6875 L 161.25 211.5625 L 149.6875 214.0625 L 146.25 214.375 L 140 214.375 L 131.25 213.125 L 119.6875 210.625 L 114.6875 208.75 L 105.625 204.375 L 100.3125 201.25 L 97.1875 198.75 L 95.625 197.8125 L 91.875 194.375 L 89.375 192.1875 L 86.875 189.6875 L 84.6875 187.1875 L 84.375 186.25 L 83.75 186.25 L 81.25 182.1875 L 79.375 178.75 L 78.4375 177.1875 L 78.125 175.3125 L 77.1875 175 L 75.9375 173.125 L 75.3125 170.625 L 75.3125 170 L 74.375 170 L 74.0625 169.0625 Z M 74.0625 166.5625 "/>
<path style=" stroke:none;fill-rule:nonzero;fill:rgb(96.862745%,97.254902%,93.333334%);fill-opacity:1;" d="M 93.125 74.375 L 95.9375 74.6875 L 102.5 76.5625 L 107.5 78.125 L 112.1875 79.6875 L 117.5 81.25 L 120 82.1875 L 126.5625 84.375 L 130.3125 85.9375 L 140.9375 89.6875 L 144.0625 90.9375 L 146.875 91.875 L 148.125 92.5 L 147.5 93.75 L 142.5 97.5 L 138.125 100.9375 L 134.0625 104.375 L 132.8125 104.6875 L 127.5 101.5625 L 123.125 99.0625 L 114.6875 94.0625 L 110 90.9375 L 108.4375 89.6875 L 105 87.8125 L 98.125 83.4375 L 95 81.25 L 90.3125 78.125 L 89.0625 76.875 L 91.5625 75.3125 Z M 93.125 74.375 "/>
<path style=" stroke:none;fill-rule:nonzero;fill:rgb(96.470588%,97.254902%,92.941177%);fill-opacity:1;" d="M 163.4375 109.375 L 164.0625 109.375 L 164.0625 126.25 L 163.75 149.375 L 163.4375 163.125 L 161.875 165 L 161.25 165 L 159.6875 161.5625 L 158.125 156.25 L 156.25 149.6875 L 155 145.625 L 151.5625 136.25 L 148.125 125.9375 L 147.5 123.75 L 147.5 121.875 L 150.9375 119.375 L 157.8125 113.75 L 158.4375 113.75 L 158.4375 113.125 Z M 163.4375 109.375 "/>
<path style=" stroke:none;fill-rule:nonzero;fill:rgb(78.823531%,81.960785%,77.64706%);fill-opacity:1;" d="M 114.0625 99.6875 L 115.625 100 L 125 105.625 L 128.4375 107.8125 L 127.8125 109.0625 L 123.75 112.1875 L 120 115.3125 L 115 119.0625 L 110.625 122.8125 L 104.6875 127.1875 L 99.6875 131.25 L 96.875 133.4375 L 94.6875 135 L 94.6875 132.5 L 96.25 125.625 L 98.4375 119.375 L 101.25 114.0625 L 105 108.75 L 108.4375 105 L 111.875 101.5625 Z M 114.0625 99.6875 "/>
<path style=" stroke:none;fill-rule:nonzero;fill:rgb(49.019608%,68.235296%,72.549021%);fill-opacity:1;" d="M 171.25 176.875 L 173.4375 178.75 L 178.125 183.4375 L 180.625 185.625 L 185.625 190.3125 L 194.6875 199.375 L 195.3125 199.6875 L 195.3125 200.3125 L 196.5625 200.9375 L 207.5 211.875 L 210 214.0625 L 215.3125 219.0625 L 218.75 222.5 L 221.25 224.6875 L 223.75 227.5 L 226.25 229.6875 L 232.1875 235.625 L 233.4375 237.1875 L 235.9375 239.375 L 238.4375 242.8125 L 239.375 245.3125 L 239.375 249.375 L 238.125 252.1875 L 235.625 254.375 L 233.75 255 L 229.375 255 L 226.875 254.0625 L 225.9375 250.625 L 225.625 249.375 L 224.375 249.375 L 223.75 247.1875 L 224.375 246.875 L 223.4375 246.25 L 223.4375 245.625 L 222.8125 245.625 L 222.8125 245 L 220.625 244.6875 L 220.3125 242.5 L 219.6875 241.5625 L 217.5 241.25 L 217.8125 239.6875 L 217.8125 238.75 L 219.6875 240 L 219.0625 238.75 L 219.375 238.125 L 218.125 238.4375 L 218.125 237.8125 L 216.5625 237.1875 L 215.9375 236.5625 L 215.3125 236.875 L 215.625 235.625 L 215 235.625 L 215 235 L 216.25 235.3125 L 217.8125 234.6875 L 217.8125 235.3125 L 218.4375 235.3125 L 218.75 234.0625 L 219.0625 235 L 220.3125 235.625 L 220 236.25 L 222.5 236.875 L 222.5 238.4375 L 224.0625 238.125 L 223.125 237.5 L 223.75 237.1875 L 225 237.1875 L 225.9375 236.875 L 226.25 237.8125 L 225.9375 238.4375 L 227.1875 238.75 L 227.5 238.125 L 229.0625 238.125 L 229.375 240 L 230 240 L 230 240.9375 L 231.875 241.875 L 230.9375 242.1875 L 231.5625 243.75 L 232.1875 242.5 L 233.125 242.8125 L 232.5 243.125 L 232.5 243.75 L 233.125 243.4375 L 235 243.4375 L 237.5 244.375 L 236.875 242.8125 L 234.0625 240 L 231.5625 237.8125 L 227.5 233.75 L 225.3125 231.25 L 216.5625 222.5 L 214.0625 220.3125 L 209.0625 215 L 207.8125 214.0625 L 207.8125 213.4375 L 206.5625 212.8125 L 201.875 208.125 L 199.375 205.9375 L 188.4375 195 L 186.5625 193.4375 L 184.375 190.9375 L 175.625 182.1875 L 173.125 180 L 171.5625 178.125 Z M 171.25 176.875 "/>
<path style=" stroke:none;fill-rule:nonzero;fill:rgb(52.549022%,73.333335%,76.862746%);fill-opacity:1;" d="M 140.625 71.25 L 145 71.25 L 151.875 71.875 L 161.5625 73.75 L 166.25 75.3125 L 167.8125 76.25 L 167.8125 77.1875 L 164.375 79.375 L 159.6875 83.125 L 155 86.5625 L 154.0625 87.5 L 153.4375 87.5 L 153.4375 88.125 L 150.9375 87.8125 L 147.8125 86.875 L 147.5 85.625 L 148.4375 84.6875 L 148.4375 82.5 L 147.1875 79.0625 L 145.3125 76.25 L 142.8125 74.0625 L 141.25 73.4375 L 137.5 73.4375 L 135 74.6875 L 131.25 77.5 L 128.75 79.6875 L 125.9375 78.75 L 119.0625 76.5625 L 119.375 75.625 L 130.625 72.5 L 135.625 71.5625 Z M 140.625 71.25 "/>
<path style=" stroke:none;fill-rule:nonzero;fill:rgb(11.764706%,21.960784%,29.411766%);fill-opacity:1;" d="M 234.6875 103.75 L 237.1875 104.0625 L 242.5 105.625 L 245.9375 107.5 L 248.75 109.6875 L 251.25 112.5 L 253.75 116.5625 L 255 120.3125 L 255.3125 121.875 L 255.3125 126.875 L 254.375 130.9375 L 253.75 131.25 L 253.75 130.625 L 251.25 131.25 L 250.625 131.5625 L 249.6875 130.625 L 250.625 126.875 L 250.625 122.8125 L 249.6875 119.375 L 247.8125 115.625 L 245.9375 113.4375 L 245.3125 113.125 L 245.3125 112.5 L 243.75 111.875 L 241.25 110.3125 L 238.4375 109.0625 L 235.9375 108.4375 L 231.25 108.4375 L 227.5 109.375 L 224.0625 111.25 L 221.25 113.4375 L 219.0625 115.625 L 216.875 121.25 L 216.5625 122.8125 L 216.25 122.8125 L 215.625 126.25 L 215 126.25 L 214.6875 127.1875 L 212.5 127.1875 L 211.875 128.4375 L 211.25 125.9375 L 211.5625 122.1875 L 213.4375 116.5625 L 214.6875 114.0625 L 218.125 110 L 220.625 107.8125 L 221.875 107.8125 L 222.1875 106.5625 L 229.0625 104.0625 L 233.75 104.0625 Z M 234.6875 103.75 "/>
<path style=" stroke:none;fill-rule:nonzero;fill:rgb(64.313728%,76.078433%,77.64706%);fill-opacity:1;" d="M 74.0625 166.5625 L 75 167.8125 L 77.5 172.8125 L 81.25 178.4375 L 84.6875 182.5 L 88.4375 186.5625 L 89.0625 187.8125 L 90.3125 188.4375 L 94.375 192.1875 L 100.3125 196.5625 L 105.3125 199.6875 L 115.625 204.6875 L 123.125 207.1875 L 130.625 208.75 L 136.875 209.6875 L 148.125 210.3125 L 148.125 210.625 L 144.375 210.625 L 144.375 211.25 L 143.4375 211.25 L 143.4375 212.5 L 144.0625 212.8125 L 144.375 213.4375 L 146.25 214.0625 L 146.25 214.375 L 140 214.375 L 131.25 213.125 L 119.6875 210.625 L 114.6875 208.75 L 105.625 204.375 L 100.3125 201.25 L 97.1875 198.75 L 95.625 197.8125 L 91.875 194.375 L 89.375 192.1875 L 86.875 189.6875 L 84.6875 187.1875 L 84.375 186.25 L 83.75 186.25 L 81.25 182.1875 L 79.375 178.75 L 78.4375 177.1875 L 78.125 175.3125 L 77.1875 175 L 75.9375 173.125 L 75.3125 170.625 L 75.3125 170 L 74.375 170 L 74.0625 169.0625 Z M 74.0625 166.5625 "/>
<path style=" stroke:none;fill-rule:nonzero;fill:rgb(66.274512%,77.64706%,78.431374%);fill-opacity:1;" d="M 141.875 126.25 L 142.5 126.25 L 146.25 135.9375 L 148.75 142.1875 L 150.625 147.8125 L 150.3125 148.75 L 147.8125 147.5 L 145.9375 147.1875 L 146.875 146.5625 L 145.3125 140.9375 L 142.1875 132.8125 L 140.9375 131.25 L 139.6875 133.125 L 136.875 135.3125 L 133.75 137.1875 L 132.5 137.8125 L 132.5 138.4375 L 128.125 141.875 L 125 144.375 L 121.25 147.1875 L 118.125 149.6875 L 114.0625 152.8125 L 110.9375 155 L 107.5 158.125 L 105 160.3125 L 104.375 161.5625 L 103.75 162.5 L 102.5 159.375 L 101.875 156.25 L 106.875 152.5 L 110.9375 149.375 L 115 146.5625 L 120.3125 142.5 L 126.5625 138.125 L 130.9375 134.6875 L 135.3125 131.5625 L 139.375 128.4375 Z M 141.875 126.25 "/>
<path style=" stroke:none;fill-rule:nonzero;fill:rgb(96.078432%,96.862745%,92.54902%);fill-opacity:1;" d="M 73.4375 136.5625 L 75 136.875 L 82.1875 139.375 L 89.0625 141.875 L 88.75 143.125 L 85.625 145.9375 L 83.125 148.125 L 81.875 149.375 L 80.3125 148.75 L 77.5 146.25 L 74.6875 144.0625 L 70.3125 140 L 70 138.4375 L 71.875 137.8125 Z M 73.4375 136.5625 "/>
<path style=" stroke:none;fill-rule:nonzero;fill:rgb(35.686275%,52.941179%,58.823532%);fill-opacity:1;" d="M 171.25 176.875 L 173.4375 178.75 L 178.125 183.4375 L 180.625 185.625 L 185.625 190.3125 L 194.6875 199.375 L 195.3125 199.6875 L 195.3125 200.3125 L 196.5625 200.9375 L 207.5 211.875 L 210 214.0625 L 215.3125 219.0625 L 218.75 222.5 L 221.25 224.6875 L 223.75 227.5 L 226.25 229.6875 L 232.1875 235.625 L 233.4375 237.1875 L 235.9375 239.375 L 238.4375 242.8125 L 238.75 244.0625 L 237.5 243.4375 L 234.0625 240 L 231.5625 237.8125 L 227.5 233.75 L 225.3125 231.25 L 216.5625 222.5 L 214.0625 220.3125 L 209.0625 215 L 207.8125 214.0625 L 207.8125 213.4375 L 206.5625 212.8125 L 201.875 208.125 L 199.375 205.9375 L 188.4375 195 L 186.5625 193.4375 L 184.375 190.9375 L 175.625 182.1875 L 173.125 180 L 171.5625 178.125 Z M 171.25 176.875 "/>
<path style=" stroke:none;fill-rule:nonzero;fill:rgb(64.313728%,76.078433%,77.64706%);fill-opacity:1;" d="M 114.0625 99.6875 L 115.625 100 L 125 105.625 L 128.4375 107.8125 L 127.8125 109.0625 L 125 111.25 L 123.4375 110.9375 L 123.4375 110.3125 L 121.875 110 L 120.3125 108.4375 L 117.1875 106.25 L 112.5 103.75 L 111.25 102.8125 L 111.5625 105 L 109.375 107.5 L 107.1875 109.6875 L 103.75 114.375 L 100.3125 119.375 L 99.6875 119.375 L 99.6875 120 L 99.0625 120 L 98.75 120.625 L 98.125 120.625 L 98.75 118.75 L 101.25 114.0625 L 105 108.75 L 108.4375 105 L 111.875 101.5625 Z M 114.0625 99.6875 "/>
<path style=" stroke:none;fill-rule:nonzero;fill:rgb(65.882355%,77.254903%,78.431374%);fill-opacity:1;" d="M 253.75 139.0625 L 254.375 139.375 L 254.0625 140.9375 L 253.4375 142.1875 L 251.875 143.4375 L 251.25 145 L 249.375 146.5625 L 248.125 147.1875 L 246.875 147.5 L 247.5 146.5625 L 248.125 145.9375 L 245.9375 145.9375 L 245.9375 147.1875 L 244.375 148.4375 L 240.625 149.375 L 236.5625 149.0625 L 236.25 149.375 L 228.75 149.375 L 223.75 147.8125 L 223.125 147.5 L 223.4375 146.5625 L 225.625 147.5 L 226.875 147.5 L 226.875 148.125 L 232.5 148.125 L 233.4375 147.5 L 232.5 147.1875 L 227.8125 147.1875 L 226.25 146.875 L 226.5625 145.625 L 225.9375 145 L 228.125 145.3125 L 230.625 145.625 L 236.25 145.625 L 239.375 145 L 245.625 142.5 L 248.4375 140.3125 L 249.375 140.3125 L 250.3125 141.25 Z M 253.75 139.0625 "/>
<path style=" stroke:none;fill-rule:nonzero;fill:rgb(35.686275%,52.941179%,58.823532%);fill-opacity:1;" d="M 190 90.3125 L 190.9375 90.625 L 193.4375 94.0625 L 195.3125 96.5625 L 193.75 96.875 L 193.75 95.9375 L 193.125 95.625 L 193.125 96.25 L 191.875 96.875 L 190.625 98.125 L 189.0625 99.375 L 186.875 101.25 L 185.3125 102.5 L 183.75 102.8125 L 182.8125 103.75 L 180.625 101.875 L 179.0625 99.6875 L 179.375 98.125 L 185.3125 93.75 Z M 190 90.3125 "/>
<path style=" stroke:none;fill-rule:nonzero;fill:rgb(93.333334%,94.901961%,90.980393%);fill-opacity:1;" d="M 96.25 160.3125 L 96.875 160.3125 L 96.875 175.9375 L 94.0625 178.125 L 93.4375 178.125 L 92.1875 174.6875 L 91.25 171.25 L 90.3125 169.0625 L 89.375 165.625 L 89.375 163.125 L 94.0625 161.25 Z M 96.25 160.3125 "/>
<path style=" stroke:none;fill-rule:nonzero;fill:rgb(79.215688%,82.352942%,78.039217%);fill-opacity:1;" d="M 219.0625 182.1875 L 225.625 182.5 L 227.8125 183.125 L 229.6875 185 L 230.9375 191.25 L 230.9375 194.375 L 227.5 193.4375 L 224.375 191.875 L 222.8125 190.625 L 220.3125 187.1875 L 219.0625 183.125 Z M 219.0625 182.1875 "/>
<path style=" stroke:none;fill-rule:nonzero;fill:rgb(78.823531%,82.352942%,78.039217%);fill-opacity:1;" d="M 245 182.1875 L 247.1875 182.1875 L 246.5625 185.625 L 244.375 189.375 L 241.875 191.875 L 238.75 193.4375 L 236.875 194.0625 L 235.3125 194.0625 L 235.9375 185.625 L 237.8125 184.6875 L 239.375 182.8125 Z M 245 182.1875 "/>
<path style=" stroke:none;fill-rule:nonzero;fill:rgb(59.215689%,73.333335%,75.294119%);fill-opacity:1;" d="M 244.375 250.625 L 245 251.875 L 243.4375 256.5625 L 240.9375 260 L 237.8125 262.1875 L 235 263.4375 L 232.5 263.75 L 227.8125 263.75 L 224.375 262.5 L 220.9375 260.3125 L 220.625 259.6875 L 218.4375 258.4375 L 218.4375 257.1875 L 221.25 256.5625 L 225.625 259.0625 L 228.75 260 L 232.1875 260.3125 L 235.3125 259.6875 L 239.6875 257.5 L 241.875 255.3125 L 243.75 252.1875 Z M 244.375 250.625 "/>
<path style=" stroke:none;fill-rule:nonzero;fill:rgb(79.607844%,82.745099%,78.431374%);fill-opacity:1;" d="M 230 166.25 L 230.9375 166.25 L 230.9375 169.0625 L 230.3125 174.0625 L 228.4375 175.3125 L 227.5 177.1875 L 220.9375 177.8125 L 219.0625 177.8125 L 219.6875 174.6875 L 221.25 171.875 L 224.0625 169.0625 L 227.1875 167.1875 Z M 230 166.25 "/>
<path style=" stroke:none;fill-rule:nonzero;fill:rgb(79.607844%,82.352942%,78.039217%);fill-opacity:1;" d="M 235 166.5625 L 237.1875 166.5625 L 240.9375 168.4375 L 243.125 170.3125 L 245.3125 173.125 L 246.5625 175.625 L 246.875 177.8125 L 240.3125 177.5 L 239.0625 177.1875 L 237.8125 175.3125 L 236.25 173.75 L 235.625 171.875 Z M 235 166.5625 "/>
<path style=" stroke:none;fill-rule:nonzero;fill:rgb(48.235294%,67.450982%,71.764708%);fill-opacity:1;" d="M 147.8125 153.4375 L 149.0625 154.0625 L 151.875 156.5625 L 154.0625 160 L 157.1875 167.5 L 158.4375 170.9375 L 158.75 171.25 L 161.25 170.9375 L 164.6875 169.0625 L 165.9375 168.4375 L 166.875 172.1875 L 165 174.6875 L 164.375 174.6875 L 164.375 175.3125 L 161.25 176.875 L 159.375 176.875 L 159.375 176.25 L 158.75 176.25 L 158.4375 175 L 157.8125 175 L 156.875 173.75 L 156.5625 170.625 L 155.9375 168.4375 L 153.4375 163.4375 L 153.4375 162.1875 L 152.8125 162.1875 L 150 158.125 L 148.4375 155 L 147.5 153.75 Z M 147.8125 153.4375 "/>
<path style=" stroke:none;fill-rule:nonzero;fill:rgb(36.078432%,53.333336%,59.215689%);fill-opacity:1;" d="M 102.5 170 L 104.0625 171.25 L 106.5625 174.375 L 109.0625 176.875 L 113.125 180 L 117.8125 183.125 L 126.875 187.1875 L 131.875 188.4375 L 138.75 189.375 L 141.25 190 L 146.25 190.3125 L 146.5625 191.25 L 145.625 191.5625 L 136.25 191.25 L 130 190 L 127.8125 189.375 L 124.0625 188.125 L 120.625 186.25 L 115.625 183.75 L 111.875 180.9375 L 107.8125 177.5 L 105.625 175.625 L 104.0625 173.4375 L 102.8125 173.125 L 103.125 174.0625 L 102.8125 175.9375 L 102.1875 175.3125 L 102.1875 171.25 Z M 102.5 170 "/>
<path style=" stroke:none;fill-rule:nonzero;fill:rgb(5.490196%,15.294118%,23.137255%);fill-opacity:1;" d="M 99.375 141.875 L 101.25 141.875 L 102.1875 143.4375 L 101.875 145 L 99.375 147.1875 L 95 150 L 91.5625 150.625 L 88.75 151.25 L 87.1875 151.5625 L 87.8125 150.625 L 88.4375 150.9375 L 88.4375 150 L 89.6875 149.6875 L 88.75 147.5 L 88.75 144.375 L 88.125 144.0625 L 89.375 143.75 L 89.375 143.125 L 91.875 142.8125 L 93.125 143.125 L 91.875 144.6875 L 90.9375 145.625 L 92.8125 145 Z M 99.375 141.875 "/>
<path style=" stroke:none;fill-rule:nonzero;fill:rgb(64.313728%,76.47059%,77.64706%);fill-opacity:1;" d="M 126.875 164.0625 L 127.8125 164.0625 L 128.75 166.5625 L 132.1875 170.625 L 141.25 179.6875 L 143.75 181.875 L 144.6875 182.8125 L 140.9375 183.125 L 137.5 180.9375 L 135.625 179.375 L 135.625 178.75 L 135 178.75 L 132.8125 176.25 L 130.625 174.0625 L 127.8125 170 L 126.5625 168.125 L 126.25 165.3125 Z M 126.875 164.0625 "/>
<path style=" stroke:none;fill-rule:nonzero;fill:rgb(36.078432%,53.333336%,59.215689%);fill-opacity:1;" d="M 96.875 88.4375 L 100.3125 90.625 L 105.3125 93.75 L 108.75 96.25 L 108.125 97.8125 L 105.625 100.625 L 103.75 99.6875 L 102.5 97.8125 L 100.9375 97.1875 L 99.0625 94.6875 L 96.5625 93.125 L 94.0625 92.5 L 94.6875 90.625 Z M 96.875 88.4375 "/>
<path style=" stroke:none;fill-rule:nonzero;fill:rgb(48.235294%,67.058825%,71.372551%);fill-opacity:1;" d="M 94.0625 91.25 L 94.6875 91.25 L 94.375 92.1875 L 97.1875 93.125 L 98.4375 93.75 L 98.4375 94.375 L 99.6875 95 L 100.9375 96.5625 L 100.9375 97.1875 L 102.8125 97.8125 L 103.75 99.0625 L 103.75 99.6875 L 105.3125 100.3125 L 104.6875 101.875 L 103.4375 102.8125 L 101.25 100.3125 L 98.75 98.4375 L 96.25 95.9375 L 92.8125 94.375 L 91.25 96.875 L 89.6875 98.125 L 86.5625 102.1875 L 86.25 102.8125 L 85.625 102.8125 L 85.3125 104.0625 L 82.8125 108.4375 L 81.25 111.25 L 80 111.875 L 80.625 110 L 84.0625 103.75 L 86.25 100.3125 L 89.6875 95.9375 L 92.5 92.8125 Z M 94.0625 91.25 "/>
<path style=" stroke:none;fill-rule:nonzero;fill:rgb(65.098041%,76.862746%,78.039217%);fill-opacity:1;" d="M 204.0625 240 L 205.3125 240.625 L 220.9375 256.25 L 220.9375 256.875 L 218.4375 257.5 L 217.5 257.5 L 211.5625 251.5625 L 210.9375 251.25 L 210.9375 250.625 L 210.3125 250.625 L 210.3125 250 L 209.0625 249.375 L 206.5625 246.875 L 206.875 246.25 L 205.9375 244.6875 L 205.9375 243.125 L 205 241.25 L 204.375 241.25 Z M 204.0625 240 "/>
<path style=" stroke:none;fill-rule:nonzero;fill:rgb(65.098041%,76.862746%,78.039217%);fill-opacity:1;" d="M 122.1875 209.6875 L 124.375 210 L 125.9375 210.625 L 131.875 211.875 L 134.6875 211.875 L 135 210 L 133.4375 210 L 133.4375 209.6875 L 136.875 209.6875 L 148.125 210.3125 L 148.125 210.625 L 144.375 210.625 L 144.375 211.25 L 143.4375 211.25 L 143.4375 212.5 L 144.0625 212.8125 L 144.375 213.4375 L 146.25 214.0625 L 146.25 214.375 L 140 214.375 L 131.25 213.125 L 122.1875 211.25 L 121.5625 210.625 Z M 122.1875 209.6875 "/>
<path style=" stroke:none;fill-rule:nonzero;fill:rgb(35.686275%,52.941179%,58.823532%);fill-opacity:1;" d="M 150.625 188.4375 L 162.8125 200.625 L 162.8125 201.25 L 160 202.5 L 158.75 202.1875 L 157.5 200 L 155.9375 198.75 L 153.75 196.25 L 149.375 191.5625 L 147.8125 191.25 L 148.125 190.625 L 147.5 190 L 149.375 190 L 150.3125 189.0625 Z M 150.625 188.4375 "/>
<path style=" stroke:none;fill-rule:nonzero;fill:rgb(4.705882%,14.509805%,22.352941%);fill-opacity:1;" d="M 239.6875 105 L 242.5 105.625 L 245.9375 107.5 L 248.75 109.6875 L 251.25 112.5 L 253.75 116.5625 L 255 120.3125 L 255.3125 121.875 L 255.3125 126.875 L 254.375 129.6875 L 253.75 128.4375 L 253.4375 121.25 L 251.5625 119.0625 L 250.9375 115.625 L 250.9375 114.375 L 250 114.0625 L 249.0625 113.125 L 248.4375 112.8125 L 248.125 111.875 L 247.1875 110.9375 L 245 109.6875 L 244.6875 109.0625 L 243.75 108.75 L 243.125 107.1875 L 241.5625 106.25 L 240 105.9375 Z M 239.6875 105 "/>
<path style=" stroke:none;fill-rule:nonzero;fill:rgb(59.607846%,73.725492%,75.686276%);fill-opacity:1;" d="M 119.0625 102.5 L 120.9375 103.125 L 125 105.625 L 128.4375 107.8125 L 127.8125 109.0625 L 125 111.25 L 123.4375 110.9375 L 123.4375 110.3125 L 121.875 110 L 120.3125 108.4375 L 117.1875 106.25 L 116.25 105.3125 L 117.1875 104.6875 L 117.8125 103.75 L 118.4375 103.4375 L 118.4375 102.8125 Z M 119.0625 102.5 "/>
<path style=" stroke:none;fill-rule:nonzero;fill:rgb(59.215689%,73.725492%,75.686276%);fill-opacity:1;" d="M 213.75 137.5 L 214.6875 138.4375 L 215.625 140 L 217.1875 141.5625 L 217.5 139.6875 L 219.0625 140.3125 L 223.125 143.125 L 226.5625 144.6875 L 226.875 145.9375 L 226.25 145.9375 L 226.25 146.875 L 232.5 146.875 L 233.75 147.5 L 233.4375 148.125 L 231.25 148.4375 L 228.4375 148.4375 L 226.875 148.125 L 226.875 147.5 L 226.25 147.5 L 225.9375 148.125 L 223.4375 146.875 L 222.5 147.1875 L 218.75 144.6875 L 217.1875 143.125 L 215 140.625 L 213.75 138.4375 Z M 213.75 137.5 "/>
<path style=" stroke:none;fill-rule:nonzero;fill:rgb(71.372551%,80.392158%,80.000001%);fill-opacity:1;" d="M 177.8125 133.75 L 179.0625 134.375 L 179.375 137.5 L 178.125 139.375 L 176.5625 140.9375 L 174.375 141.875 L 170.9375 141.875 L 170 141.5625 L 169.6875 144.0625 L 169.375 144.0625 L 169.375 139.0625 L 174.375 136.25 Z M 177.8125 133.75 "/>
<path style=" stroke:none;fill-rule:nonzero;fill:rgb(58.039218%,72.156864%,74.509805%);fill-opacity:1;" d="M 174.375 101.875 L 175.9375 103.4375 L 178.75 106.875 L 181.875 111.25 L 184.375 115.3125 L 185.9375 119.375 L 185.9375 120 L 185 120 L 184.6875 118.75 L 184.0625 118.75 L 181.875 115.3125 L 176.875 109.0625 L 176.875 108.4375 L 176.25 108.4375 L 176.25 107.8125 L 175 107.1875 L 174.0625 105.625 L 173.4375 104.375 L 172.8125 104.0625 L 172.8125 102.8125 Z M 174.375 101.875 "/>
<path style=" stroke:none;fill-rule:nonzero;fill:rgb(62.7451%,74.901962%,76.862746%);fill-opacity:1;" d="M 142.5 132.8125 L 144.6875 133.4375 L 145 132.8125 L 148.4375 141.25 L 150.625 147.8125 L 150.3125 148.75 L 147.8125 147.5 L 145.9375 147.1875 L 146.875 146.5625 L 145.3125 140.9375 L 142.5 133.75 Z M 142.5 132.8125 "/>
<path style=" stroke:none;fill-rule:nonzero;fill:rgb(71.764708%,81.176472%,80.392158%);fill-opacity:1;" d="M 253.75 139.0625 L 254.375 139.375 L 254.0625 140.9375 L 253.4375 142.1875 L 251.875 143.4375 L 251.25 145 L 249.375 146.5625 L 248.125 147.1875 L 246.875 147.5 L 247.5 146.5625 L 248.125 145.9375 L 245.9375 145.9375 L 245.9375 147.1875 L 245 148.125 L 244.375 148.125 L 244.0625 145.3125 L 245 142.8125 L 248.125 140.625 L 249.0625 140 L 250.3125 141.25 Z M 253.75 139.0625 "/>
<path style=" stroke:none;fill-rule:nonzero;fill:rgb(71.372551%,80.784315%,80.392158%);fill-opacity:1;" d="M 211.875 133.75 L 212.8125 134.6875 L 214.6875 139.6875 L 215.9375 141.25 L 215.9375 141.875 L 215.3125 142.5 L 215 145.625 L 214.6875 145.625 L 214.6875 143.75 L 212.5 143.4375 L 210.3125 142.5 L 209.6875 140.9375 L 209.375 139.6875 L 209.0625 138.125 L 210 135.9375 L 210.9375 135 Z M 211.875 133.75 "/>
<path style=" stroke:none;fill-rule:nonzero;fill:rgb(35.686275%,52.941179%,58.823532%);fill-opacity:1;" d="M 81.5625 164.375 L 83.125 164.375 L 84.0625 165.9375 L 86.875 172.5 L 87.8125 175.9375 L 87.5 177.1875 L 85 174.0625 L 82.5 170.625 L 80 165.9375 L 79.6875 164.6875 Z M 81.5625 164.375 "/>
<path style=" stroke:none;fill-rule:nonzero;fill:rgb(60.784316%,73.725492%,75.686276%);fill-opacity:1;" d="M 67.8125 144.6875 L 68.4375 145 L 68.4375 148.4375 L 69.375 153.125 L 70.9375 158.4375 L 72.5 162.5 L 72.5 163.125 L 71.25 163.4375 L 68.75 158.75 L 66.875 154.0625 L 66.25 150.9375 L 66.25 146.875 L 67.5 146.875 Z M 67.8125 144.6875 "/>
<path style=" stroke:none;fill-rule:nonzero;fill:rgb(59.215689%,73.333335%,75.294119%);fill-opacity:1;" d="M 122.5 207.1875 L 130.625 208.75 L 134.375 209.375 L 135 210 L 134.6875 211.875 L 131.875 212.1875 L 124.6875 210.625 L 121.875 209.375 L 121.5625 208.125 L 122.5 208.125 Z M 122.5 207.1875 "/>
<path style=" stroke:none;fill-rule:nonzero;fill:rgb(59.215689%,73.333335%,75.294119%);fill-opacity:1;" d="M 83.125 79.375 L 87.5 81.875 L 91.875 85 L 91.875 85.9375 L 89.6875 88.125 L 87.5 86.875 L 85.625 85.3125 L 85.625 84.6875 L 85 84.6875 L 83.4375 81.875 Z M 83.125 79.375 "/>
<path style=" stroke:none;fill-rule:nonzero;fill:rgb(48.235294%,67.450982%,71.764708%);fill-opacity:1;" d="M 101.25 179.0625 L 101.875 180.3125 L 101.875 181.875 L 100.3125 185.625 L 98.4375 188.4375 L 96.25 186.5625 L 95 185.3125 L 95 183.75 L 98.125 181.5625 L 100.9375 179.375 Z M 101.25 179.0625 "/>
<path style=" stroke:none;fill-rule:nonzero;fill:rgb(11.764706%,21.960784%,29.019609%);fill-opacity:1;" d="M 68.4375 145 L 70.625 146.875 L 72.8125 149.0625 L 73.4375 149.375 L 73.4375 150 L 74.6875 150.625 L 75.9375 151.5625 L 75.9375 152.1875 L 77.1875 152.8125 L 77.5 153.75 L 76.25 154.6875 L 75.625 154.6875 L 75.3125 155.3125 L 74.0625 152.5 L 73.4375 150.3125 L 72.8125 150.3125 L 72.8125 149.6875 L 71.25 150.625 L 70.9375 154.6875 L 70 154.375 L 69.0625 152.1875 L 68.75 152.1875 L 68.125 148.4375 L 68.125 145.625 Z M 68.4375 145 "/>
<path style=" stroke:none;fill-rule:nonzero;fill:rgb(12.156863%,22.352941%,29.411766%);fill-opacity:1;" d="M 90.3125 142.8125 L 93.125 142.8125 L 91.875 144.6875 L 90.9375 145.625 L 91.25 146.25 L 90.625 146.25 L 90.625 147.8125 L 92.5 148.125 L 92.5 147.1875 L 94.0625 147.5 L 96.25 148.125 L 96.5625 149.0625 L 95 150 L 91.5625 150.625 L 88.75 151.25 L 87.1875 151.5625 L 87.8125 150.625 L 88.4375 150.9375 L 88.4375 150 L 89.6875 149.6875 L 88.75 147.5 L 88.75 144.375 L 88.125 144.0625 L 89.375 143.75 L 89.375 143.125 Z M 90.3125 142.8125 "/>
<path style=" stroke:none;fill-rule:nonzero;fill:rgb(65.098041%,76.862746%,78.039217%);fill-opacity:1;" d="M 141.875 126.25 L 142.5 126.25 L 144.6875 131.875 L 144.6875 133.4375 L 143.125 133.125 L 141.875 132.5 L 140.9375 131.25 L 139.6875 133.125 L 139.0625 133.4375 L 137.5 131.875 L 136.875 130.3125 L 139.6875 128.125 Z M 141.875 126.25 "/>
<path style=" stroke:none;fill-rule:nonzero;fill:rgb(47.450981%,66.666669%,70.980394%);fill-opacity:1;" d="M 146.875 71.5625 L 149.6875 71.5625 L 160.3125 73.4375 L 165.3125 75 L 167.8125 76.25 L 167.8125 77.1875 L 166.5625 77.5 L 161.875 75.625 L 154.375 74.0625 L 152.1875 73.75 L 152.1875 73.125 L 148.75 72.8125 L 146.25 72.1875 Z M 146.875 71.5625 "/>
<path style=" stroke:none;fill-rule:nonzero;fill:rgb(95.294118%,96.078432%,92.156863%);fill-opacity:1;" d="M 169.375 124.6875 L 170.625 125 L 173.125 127.5 L 174.0625 128.75 L 173.75 130.3125 L 170 133.125 L 169.0625 133.125 L 169.0625 125 Z M 169.375 124.6875 "/>
<path style=" stroke:none;fill-rule:nonzero;fill:rgb(94.117647%,95.294118%,91.37255%);fill-opacity:1;" d="M 138.75 78.75 L 140.3125 79.0625 L 142.1875 80.625 L 142.8125 81.5625 L 142.8125 82.5 L 139.6875 85 L 135 82.5 L 135.3125 81.5625 Z M 138.75 78.75 "/>
<path style=" stroke:none;fill-rule:nonzero;fill:rgb(93.333334%,94.901961%,91.37255%);fill-opacity:1;" d="M 189.0625 70.625 L 191.25 70.625 L 194.0625 71.5625 L 195.3125 73.4375 L 195.3125 76.875 L 194.375 78.75 L 193.125 78.4375 L 191.5625 74.6875 L 189.0625 71.25 Z M 189.0625 70.625 "/>
<path style=" stroke:none;fill-rule:nonzero;fill:rgb(90.588236%,92.941177%,89.411765%);fill-opacity:1;" d="M 235 166.5625 L 237.1875 166.5625 L 240.9375 168.4375 L 243.125 170.3125 L 245.3125 173.125 L 246.5625 175.625 L 246.875 177.8125 L 244.375 177.8125 L 243.125 177.1875 L 244.6875 176.5625 L 243.75 172.5 L 243.125 171.5625 L 241.25 171.25 L 240.9375 169.375 L 237.8125 168.125 L 237.8125 168.75 L 236.875 169.6875 L 236.5625 170.3125 L 236.5625 172.8125 L 237.1875 173.75 L 235.9375 173.4375 L 235 167.8125 Z M 235 166.5625 "/>
<path style=" stroke:none;fill-rule:nonzero;fill:rgb(65.098041%,76.862746%,78.039217%);fill-opacity:1;" d="M 114.0625 99.6875 L 115.625 100 L 119.0625 102.1875 L 119.0625 102.8125 L 118.4375 102.8125 L 118.75 103.75 L 117.8125 104.0625 L 116.25 105.625 L 112.5 103.75 L 110.9375 102.5 Z M 114.0625 99.6875 "/>
<path style=" stroke:none;fill-rule:nonzero;fill:rgb(72.156864%,81.176472%,80.392158%);fill-opacity:1;" d="M 172.5 103.125 L 173.4375 103.4375 L 172.8125 103.4375 L 173.4375 104.0625 L 174.0625 104.375 L 175 106.5625 L 175.625 107.8125 L 174.6875 107.8125 L 174.375 108.75 L 172.5 109.6875 L 170.625 109.0625 L 170 107.8125 L 169.375 109.0625 L 169.375 105.625 L 171.875 103.4375 Z M 172.5 103.125 "/>
<path style=" stroke:none;fill-rule:nonzero;fill:rgb(12.156863%,22.352941%,29.411766%);fill-opacity:1;" d="M 166.875 166.875 L 168.75 167.1875 L 171.25 169.375 L 172.8125 170.9375 L 168.125 172.8125 L 166.875 172.1875 L 165.625 168.125 L 166.875 167.5 Z M 166.875 166.875 "/>
<path style=" stroke:none;fill-rule:nonzero;fill:rgb(62.352943%,74.901962%,76.47059%);fill-opacity:1;" d="M 170.3125 207.1875 L 171.5625 207.8125 L 179.0625 214.6875 L 181.875 217.5 L 181.875 218.125 L 179.6875 217.8125 L 177.8125 217.1875 L 176.875 216.25 L 176.875 214.0625 L 175.9375 213.4375 L 174.0625 212.8125 L 172.5 210.625 L 172.5 210 L 171.875 210 L 171.875 209.375 L 170.625 209.0625 Z M 170.3125 207.1875 "/>
<path style=" stroke:none;fill-rule:nonzero;fill:rgb(35.686275%,52.941179%,58.823532%);fill-opacity:1;" d="M 147.8125 153.4375 L 149.0625 154.0625 L 151.875 156.5625 L 154.0625 160 L 156.5625 165.9375 L 156.25 166.5625 L 154.375 164.375 L 153.4375 162.8125 L 153.4375 162.1875 L 152.8125 162.1875 L 150 158.125 L 148.4375 155 L 147.5 153.75 Z M 147.8125 153.4375 "/>
<path style=" stroke:none;fill-rule:nonzero;fill:rgb(47.058824%,65.882355%,70.19608%);fill-opacity:1;" d="M 211.5625 127.8125 L 212.1875 128.4375 L 213.125 131.875 L 214.375 134.6875 L 216.875 138.125 L 218.4375 140 L 217.8125 140.3125 L 217.5 141.875 L 215.9375 140.9375 L 214.6875 139.375 L 214.0625 137.8125 L 213.4375 137.5 L 212.1875 134.0625 L 211.5625 131.25 Z M 211.5625 127.8125 "/>
<path style=" stroke:none;fill-rule:nonzero;fill:rgb(94.117647%,95.294118%,91.764706%);fill-opacity:1;" d="M 229.6875 172.5 L 230 172.5 L 230 174.375 L 228.4375 175.3125 L 227.5 177.1875 L 220.9375 177.8125 L 219.0625 177.8125 L 219.6875 174.6875 L 220.625 175 L 220.625 176.25 L 223.75 175.9375 L 224.375 175 L 225 175 L 225 174.375 L 227.1875 174.0625 L 228.75 174.375 L 228.75 173.75 L 229.6875 173.75 Z M 229.6875 172.5 "/>
<path style=" stroke:none;fill-rule:nonzero;fill:rgb(46.27451%,65.490198%,69.803923%);fill-opacity:1;" d="M 142.1875 152.5 L 146.25 152.5 L 147.8125 153.125 L 148.125 154.375 L 149.375 155.9375 L 150 158.125 L 146.875 155 L 144.375 154.0625 L 140.625 154.0625 L 139.0625 154.6875 L 137.5 155.9375 L 136.875 155.9375 L 136.25 157.1875 L 135.3125 157.5 L 134.375 160.3125 L 133.75 160.625 L 134.0625 158.75 L 136.25 155.625 L 138.4375 153.75 L 140.625 152.8125 Z M 142.1875 152.5 "/>
<path style=" stroke:none;fill-rule:nonzero;fill:rgb(64.705884%,76.078433%,77.254903%);fill-opacity:1;" d="M 203.125 176.5625 L 203.4375 177.1875 L 202.8125 178.75 L 201.5625 181.5625 L 199.6875 184.375 L 199.0625 184.375 L 199.0625 185 L 198.4375 185 L 197.8125 186.5625 L 195.3125 188.75 L 193.75 188.4375 L 195.625 185.9375 L 198.75 182.5 Z M 203.125 176.5625 "/>
<path style=" stroke:none;fill-rule:nonzero;fill:rgb(48.235294%,67.450982%,71.764708%);fill-opacity:1;" d="M 193.125 95.625 L 194.0625 95.9375 L 193.75 96.875 L 192.5 96.5625 L 192.5 97.1875 L 193.125 97.5 L 192.1875 97.8125 L 191.875 98.75 L 191.25 98.4375 L 190.625 99.6875 L 186.875 103.125 L 185.3125 105 L 184.0625 105.9375 L 182.8125 104.375 L 182.8125 103.4375 L 183.4375 103.4375 L 183.75 102.5 L 185.625 101.875 L 187.8125 100 L 188.4375 100 L 188.75 99.0625 L 189.6875 98.75 L 190.3125 97.8125 L 191.5625 97.5 L 192.1875 96.25 L 193.125 96.25 Z M 193.125 95.625 "/>
<path style=" stroke:none;fill-rule:nonzero;fill:rgb(76.078433%,80.784315%,77.64706%);fill-opacity:1;" d="M 200 78.125 L 200.3125 78.125 L 200.3125 81.25 L 200 82.8125 L 198.4375 86.25 L 197.8125 86.25 L 198.125 88.75 L 197.5 89.0625 L 196.875 90 L 195 88.125 L 195 86.5625 L 197.8125 83.4375 L 199.375 80 Z M 200 78.125 "/>
<path style=" stroke:none;fill-rule:nonzero;fill:rgb(5.882353%,15.686275%,23.921569%);fill-opacity:1;" d="M 146.5625 104.6875 L 148.4375 104.6875 L 149.6875 106.25 L 149.6875 108.4375 L 149.0625 108.4375 L 148.4375 109.6875 L 145.9375 109.375 L 145 108.4375 L 145 106.25 Z M 146.5625 104.6875 "/>
<path style=" stroke:none;fill-rule:nonzero;fill:rgb(5.098039%,14.901961%,23.137255%);fill-opacity:1;" d="M 133.125 115.625 L 135.3125 115.625 L 136.5625 117.1875 L 136.25 119.0625 L 135 120 L 133.4375 120.3125 L 131.875 119.375 L 131.25 118.75 L 131.5625 116.875 Z M 133.125 115.625 "/>
<path style=" stroke:none;fill-rule:nonzero;fill:rgb(63.921571%,76.078433%,77.64706%);fill-opacity:1;" d="M 211.875 133.75 L 212.8125 134.6875 L 213.4375 137.1875 L 211.5625 138.75 L 210.9375 138.75 L 210.625 140 L 211.25 140.625 L 210.625 140.9375 L 212.1875 142.5 L 213.4375 142.8125 L 213.4375 143.4375 L 211.5625 143.125 L 210.3125 142.5 L 209.6875 140.9375 L 209.375 139.6875 L 209.0625 138.125 L 210 135.9375 L 210.9375 135 Z M 211.875 133.75 "/>
<path style=" stroke:none;fill-rule:nonzero;fill:rgb(5.490196%,15.294118%,23.137255%);fill-opacity:1;" d="M 126.875 120.3125 L 128.4375 120.625 L 129.375 121.875 L 129.375 123.75 L 128.4375 125 L 126.5625 125.3125 L 124.6875 123.4375 L 124.6875 121.875 L 125.9375 120.625 Z M 126.875 120.3125 "/>
<path style=" stroke:none;fill-rule:nonzero;fill:rgb(5.490196%,15.294118%,23.137255%);fill-opacity:1;" d="M 140.3125 109.6875 L 141.875 110 L 142.5 111.875 L 142.5 113.75 L 141.25 115 L 139.6875 115 L 138.125 113.4375 L 138.4375 111.25 Z M 140.3125 109.6875 "/>
<path style=" stroke:none;fill-rule:nonzero;fill:rgb(94.901961%,95.686275%,91.764706%);fill-opacity:1;" d="M 232.5 177.5 L 234.375 177.5 L 235.9375 178.75 L 235.9375 180.625 L 234.0625 182.1875 L 232.5 181.875 L 231.25 180.625 L 231.25 178.75 Z M 232.5 177.5 "/>
<path style=" stroke:none;fill-rule:nonzero;fill:rgb(35.686275%,52.941179%,58.823532%);fill-opacity:1;" d="M 212.1875 114.6875 L 212.8125 115.625 L 214.0625 115.3125 L 213.125 118.125 L 211.875 122.1875 L 211.5625 124.375 L 211.25 124.375 L 211.25 121.5625 L 210.3125 122.1875 L 209.375 119.375 L 208.75 119.375 L 209.0625 118.75 L 210.625 117.1875 L 211.875 115.625 Z M 212.1875 114.6875 "/>
<path style=" stroke:none;fill-rule:nonzero;fill:rgb(52.549022%,71.372551%,74.509805%);fill-opacity:1;" d="M 145.3125 140 L 146.25 141.25 L 146.875 142.8125 L 148.125 143.4375 L 148.4375 143.75 L 148.4375 142.1875 L 149.0625 143.125 L 150.625 147.8125 L 150.3125 148.75 L 147.8125 147.5 L 145.9375 147.1875 L 146.875 146.5625 L 145.3125 140.9375 Z M 145.3125 140 "/>
<path style=" stroke:none;fill-rule:nonzero;fill:rgb(87.058824%,89.803922%,85.882354%);fill-opacity:1;" d="M 156.875 114.375 L 157.5 114.6875 L 156.5625 115.625 L 157.5 116.5625 L 153.4375 119.375 L 152.1875 120.9375 L 149.375 122.8125 L 148.75 122.8125 L 149.375 121.25 L 149.6875 120.3125 L 154.0625 116.875 Z M 156.875 114.375 "/>
<path style=" stroke:none;fill-rule:nonzero;fill:rgb(63.921571%,75.686276%,77.254903%);fill-opacity:1;" d="M 174.375 101.875 L 175.9375 103.4375 L 178.125 106.25 L 177.8125 107.1875 L 176.875 107.8125 L 175.3125 107.5 L 174.0625 105.625 L 173.4375 104.375 L 172.8125 104.0625 L 172.8125 102.8125 Z M 174.375 101.875 "/>
<path style=" stroke:none;fill-rule:nonzero;fill:rgb(62.7451%,75.294119%,76.862746%);fill-opacity:1;" d="M 68.75 154.0625 L 69.6875 154.375 L 71.5625 160 L 72.5 163.125 L 71.25 163.4375 L 68.75 158.75 L 67.8125 155.9375 L 68.75 155 Z M 68.75 154.0625 "/>
<path style=" stroke:none;fill-rule:nonzero;fill:rgb(98.039216%,98.039216%,93.725491%);fill-opacity:1;" d="M 129.6875 172.8125 L 135 178.125 L 135 178.75 L 135.625 178.75 L 137.1875 180.3125 L 139.375 182.1875 L 139.375 182.8125 L 137.1875 182.8125 L 135.625 181.875 L 135.625 181.25 L 135 181.25 L 134.375 179.0625 L 131.5625 176.25 L 130.9375 175 L 129.6875 173.75 Z M 129.6875 172.8125 "/>
<path style=" stroke:none;fill-rule:nonzero;fill:rgb(5.490196%,15.294118%,23.529412%);fill-opacity:1;" d="M 120 125.625 L 121.5625 125.9375 L 122.1875 126.5625 L 122.1875 129.375 L 120.9375 130.3125 L 119.375 130 L 118.125 128.75 L 118.4375 127.1875 Z M 120 125.625 "/>
<path style=" stroke:none;fill-rule:nonzero;fill:rgb(64.313728%,76.078433%,77.64706%);fill-opacity:1;" d="M 126.875 164.0625 L 127.8125 164.0625 L 128.75 166.5625 L 130.9375 169.375 L 130.3125 170.625 L 129.0625 170 L 127.8125 170 L 126.5625 168.125 L 126.25 165.3125 Z M 126.875 164.0625 "/>
<path style=" stroke:none;fill-rule:nonzero;fill:rgb(66.274512%,77.64706%,78.431374%);fill-opacity:1;" d="M 178.4375 137.5 L 179.0625 138.125 L 177.5 140.3125 L 174.375 141.875 L 171.875 141.875 L 171.875 140.3125 L 173.125 139.375 L 175.625 139.0625 Z M 178.4375 137.5 "/>
<path style=" stroke:none;fill-rule:nonzero;fill:rgb(50.196081%,70.19608%,74.117649%);fill-opacity:1;" d="M 178.125 106.5625 L 179.6875 108.125 L 181.25 110.3125 L 180.625 111.5625 L 180.625 113.125 L 180 113.125 L 177.1875 109.375 L 176.875 108.4375 L 176.25 108.4375 L 176.25 107.8125 L 177.5 107.5 L 177.8125 106.875 Z M 178.125 106.5625 "/>
<path style=" stroke:none;fill-rule:nonzero;fill:rgb(70.19608%,80.000001%,79.607844%);fill-opacity:1;" d="M 142.1875 127.1875 L 142.8125 127.1875 L 144.6875 131.875 L 144.6875 133.4375 L 143.125 133.125 L 141.875 132.5 L 140.9375 131.25 L 140.3125 130.9375 L 140.625 129.375 L 141.25 129.375 Z M 142.1875 127.1875 "/>
<path style=" stroke:none;fill-rule:nonzero;fill:rgb(45.490196%,63.921571%,68.627453%);fill-opacity:1;" d="M 87.8125 99.375 L 88.125 100 L 86.25 102.8125 L 85.625 102.8125 L 85.3125 104.0625 L 82.8125 108.4375 L 81.25 111.25 L 80 111.875 L 80.625 110 L 84.0625 103.75 L 86.25 100.3125 Z M 87.8125 99.375 "/>
<path style=" stroke:none;fill-rule:nonzero;fill:rgb(89.411765%,92.156863%,89.019608%);fill-opacity:1;" d="M 235 166.5625 L 237.1875 166.5625 L 240.9375 168.4375 L 241.25 169.0625 L 239.375 168.75 L 237.8125 168.125 L 237.8125 168.75 L 236.875 169.6875 L 236.5625 170.3125 L 236.5625 172.8125 L 237.1875 173.75 L 235.9375 173.4375 L 235 167.8125 Z M 235 166.5625 "/>
<path style=" stroke:none;fill-rule:nonzero;fill:rgb(7.843138%,18.039216%,25.882354%);fill-opacity:1;" d="M 153.125 100.3125 L 154.6875 100.625 L 155.625 101.875 L 155.3125 103.4375 L 154.0625 104.6875 L 152.5 104.375 L 151.875 103.75 L 151.875 101.875 Z M 153.125 100.3125 "/>
<path style=" stroke:none;fill-rule:nonzero;fill:rgb(65.490198%,77.254903%,78.039217%);fill-opacity:1;" d="M 126.875 76.25 L 127.5 76.875 L 127.5 78.125 L 129.0625 77.8125 L 130.3125 77.1875 L 130.9375 76.25 L 132.1875 76.25 L 131.875 77.1875 L 130 78.4375 L 128.75 79.6875 L 125.9375 78.75 L 123.75 78.125 L 123.75 77.1875 L 126.5625 76.5625 Z M 126.875 76.25 "/>
<path style=" stroke:none;fill-rule:nonzero;fill:rgb(47.843137%,67.058825%,71.372551%);fill-opacity:1;" d="M 150 188.4375 L 150.625 188.4375 L 150 190 L 148.4375 190.3125 L 147.8125 191.25 L 146.5625 191.25 L 146.25 190.625 L 141.25 190.3125 L 139.375 190 L 139.375 189.6875 L 147.5 189.0625 Z M 150 188.4375 "/>
<path style=" stroke:none;fill-rule:nonzero;fill:rgb(54.901963%,69.803923%,72.549021%);fill-opacity:1;" d="M 74.0625 166.5625 L 75 167.8125 L 77.5 172.8125 L 79.375 175.625 L 79.0625 176.25 L 78.4375 176.5625 L 78.125 175.3125 L 77.1875 175 L 75.9375 173.125 L 75.3125 170.625 L 75.3125 170 L 74.375 170 L 74.0625 169.0625 Z M 74.0625 166.5625 "/>
<path style=" stroke:none;fill-rule:nonzero;fill:rgb(36.078432%,53.333336%,59.215689%);fill-opacity:1;" d="M 146.875 71.5625 L 149.6875 71.5625 L 156.875 72.8125 L 156.25 73.4375 L 152.1875 73.4375 L 146.25 72.1875 Z M 146.875 71.5625 "/>
<path style=" stroke:none;fill-rule:nonzero;fill:rgb(63.921571%,76.47059%,77.64706%);fill-opacity:1;" d="M 193.75 230 L 195 230.3125 L 200.625 235.9375 L 200.3125 236.875 L 198.75 236.875 L 198.125 234.6875 L 196.875 234.0625 L 195 231.5625 L 193.75 230.625 Z M 193.75 230 "/>
<path style=" stroke:none;fill-rule:nonzero;fill:rgb(36.078432%,53.333336%,59.215689%);fill-opacity:1;" d="M 161.875 74.0625 L 164.6875 74.6875 L 167.8125 76.25 L 167.8125 77.1875 L 166.5625 77.5 L 161.25 75.3125 Z M 161.875 74.0625 "/>
<path style=" stroke:none;fill-rule:nonzero;fill:rgb(70.19608%,79.607844%,79.215688%);fill-opacity:1;" d="M 200.3125 181.25 L 200.625 181.875 L 199.375 183.4375 L 198.75 183.4375 L 198.75 184.375 L 197.5 185.625 L 196.875 186.5625 L 196.875 187.5 L 195.3125 188.75 L 193.75 188.4375 L 195.625 185.9375 L 198.75 182.5 Z M 200.3125 181.25 "/>
<path style=" stroke:none;fill-rule:nonzero;fill:rgb(36.470589%,54.11765%,59.607846%);fill-opacity:1;" d="M 73.125 149.6875 L 74.6875 150.625 L 75.9375 151.5625 L 75.9375 152.1875 L 77.1875 152.8125 L 77.5 153.75 L 76.25 154.6875 L 75.625 154.6875 L 75.3125 155.3125 L 74.0625 152.5 Z M 73.125 149.6875 "/>
<path style=" stroke:none;fill-rule:nonzero;fill:rgb(59.607846%,73.333335%,75.686276%);fill-opacity:1;" d="M 66.5625 149.375 L 67.1875 149.375 L 68.125 153.4375 L 68.75 153.4375 L 69.0625 152.1875 L 69.375 154.0625 L 69.0625 155.625 L 68.125 156.25 L 67.5 155.9375 L 66.25 151.875 L 66.25 149.6875 Z M 66.5625 149.375 "/>
<path style=" stroke:none;fill-rule:nonzero;fill:rgb(71.372551%,80.392158%,80.000001%);fill-opacity:1;" d="M 200 78.125 L 200.3125 78.125 L 200.3125 81.25 L 200 82.8125 L 198.4375 86.25 L 197.1875 85.625 L 197.1875 84.0625 L 198.75 81.5625 Z M 200 78.125 "/>
<path style=" stroke:none;fill-rule:nonzero;fill:rgb(60.392159%,72.941178%,74.901962%);fill-opacity:1;" d="M 187.8125 224.375 L 189.375 224.6875 L 190.9375 226.25 L 190.9375 226.875 L 192.1875 227.5 L 194.0625 229.6875 L 192.8125 229.6875 L 191.25 228.125 L 188.125 225.9375 L 187.5 225.625 Z M 187.8125 224.375 "/>
<path style=" stroke:none;fill-rule:nonzero;fill:rgb(48.235294%,67.843139%,72.156864%);fill-opacity:1;" d="M 128.125 73.125 L 129.0625 73.4375 L 128.75 74.375 L 122.1875 76.25 L 120.3125 75.625 L 121.25 75 Z M 128.125 73.125 "/>
<path style=" stroke:none;fill-rule:nonzero;fill:rgb(92.54902%,94.509804%,90.980393%);fill-opacity:1;" d="M 214.6875 173.125 L 215 173.125 L 214.6875 176.875 L 214.375 177.5 L 210 177.8125 L 209.0625 178.75 L 208.75 179.6875 L 208.125 179.6875 L 208.4375 178.4375 L 208.75 177.8125 L 209.375 177.8125 L 209.6875 176.875 L 212.1875 176.25 L 213.75 175.3125 Z M 214.6875 173.125 "/>
<path style=" stroke:none;fill-rule:nonzero;fill:rgb(44.705883%,63.137257%,68.235296%);fill-opacity:1;" d="M 79.6875 111.875 L 80.3125 112.1875 L 80 113.75 L 77.5 120 L 76.5625 121.875 L 75.625 122.5 L 76.5625 119.375 L 79.0625 113.4375 Z M 79.6875 111.875 "/>
<path style=" stroke:none;fill-rule:nonzero;fill:rgb(11.764706%,21.960784%,29.019609%);fill-opacity:1;" d="M 209.6875 115 L 211.25 115.3125 L 211.5625 116.25 L 210.3125 118.125 L 209.6875 118.125 L 209.375 119.0625 L 208.4375 118.125 L 207.8125 116.25 L 208.4375 116.25 L 208.75 115.3125 Z M 209.6875 115 "/>
<path style=" stroke:none;fill-rule:nonzero;fill:rgb(64.705884%,76.47059%,78.039217%);fill-opacity:1;" d="M 183.125 219.6875 L 184.375 220 L 188.4375 224.0625 L 187.1875 224.375 L 186.25 223.4375 L 184.0625 222.8125 L 183.4375 221.25 Z M 183.125 219.6875 "/>
<path style=" stroke:none;fill-rule:nonzero;fill:rgb(49.411765%,68.235296%,72.549021%);fill-opacity:1;" d="M 219.6875 140.9375 L 222.5 142.8125 L 222.1875 144.0625 L 220.625 144.375 L 220.625 143.75 L 219.0625 143.4375 L 218.125 142.5 L 218.125 141.875 L 218.75 141.875 L 218.75 141.25 Z M 219.6875 140.9375 "/>
<path style=" stroke:none;fill-rule:nonzero;fill:rgb(46.666667%,65.490198%,69.803923%);fill-opacity:1;" d="M 140.625 71.25 L 145 71.25 L 146.875 71.5625 L 147.8125 72.1875 L 152.1875 73.125 L 152.1875 73.4375 L 147.8125 73.125 L 143.125 72.5 L 142.1875 71.875 L 140.625 71.5625 Z M 140.625 71.25 "/>
<path style=" stroke:none;fill-rule:nonzero;fill:rgb(35.686275%,52.941179%,58.823532%);fill-opacity:1;" d="M 195.9375 97.1875 L 197.5 98.75 L 199.6875 102.1875 L 200.625 103.4375 L 200.3125 104.0625 L 197.1875 100.9375 L 195.625 98.125 Z M 195.9375 97.1875 "/>
<path style=" stroke:none;fill-rule:nonzero;fill:rgb(96.862745%,97.254902%,92.941177%);fill-opacity:1;" d="M 145.3125 142.5 L 145.9375 142.5 L 147.1875 146.875 L 142.5 147.1875 L 139.6875 147.5 L 140.9375 146.5625 L 145.9375 145.9375 L 145.625 145.625 Z M 145.3125 142.5 "/>
<path style=" stroke:none;fill-rule:nonzero;fill:rgb(57.647061%,72.156864%,74.509805%);fill-opacity:1;" d="M 178.125 106.5625 L 179.6875 108.125 L 180 109.375 L 177.5 109.6875 L 176.875 108.4375 L 176.25 108.4375 L 176.25 107.8125 L 177.5 107.5 L 177.8125 106.875 Z M 178.125 106.5625 "/>
<path style=" stroke:none;fill-rule:nonzero;fill:rgb(66.274512%,77.64706%,78.823531%);fill-opacity:1;" d="M 162.8125 209.6875 L 165.625 209.6875 L 165 210.3125 L 161.25 211.5625 L 157.8125 212.1875 L 157.8125 211.25 Z M 162.8125 209.6875 "/>
<path style=" stroke:none;fill-rule:nonzero;fill:rgb(62.7451%,74.901962%,76.47059%);fill-opacity:1;" d="M 101.5625 115.9375 L 102.1875 116.5625 L 100.3125 119.375 L 99.6875 119.375 L 99.6875 120 L 99.0625 120 L 98.75 120.625 L 98.125 120.625 L 98.75 118.75 L 99.6875 116.875 L 100.625 116.875 Z M 101.5625 115.9375 "/>
<path style=" stroke:none;fill-rule:nonzero;fill:rgb(60.392159%,74.117649%,76.078433%);fill-opacity:1;" d="M 128.125 169.6875 L 129.6875 170 L 131.5625 170 L 131.25 171.5625 L 130.625 171.5625 L 130.625 173.125 L 129.6875 172.8125 L 128.125 170.625 Z M 128.125 169.6875 "/>
<path style=" stroke:none;fill-rule:nonzero;fill:rgb(43.529412%,61.960787%,67.058825%);fill-opacity:1;" d="M 138.4375 153.75 L 139.375 154.0625 L 137.8125 155.625 L 136.875 155.9375 L 136.25 157.1875 L 135.3125 157.5 L 134.375 160.3125 L 133.75 160.625 L 134.0625 158.75 L 136.25 155.625 Z M 138.4375 153.75 "/>
<path style=" stroke:none;fill-rule:nonzero;fill:rgb(67.843139%,78.039217%,78.431374%);fill-opacity:1;" d="M 244.0625 143.125 L 245.3125 143.75 L 244.6875 143.75 L 244.6875 145 L 241.875 145.625 L 240.3125 145.625 L 240.3125 144.6875 Z M 244.0625 143.125 "/>
<path style=" stroke:none;fill-rule:nonzero;fill:rgb(61.960787%,74.509805%,76.47059%);fill-opacity:1;" d="M 143.125 73.125 L 145.3125 73.125 L 146.25 76.25 L 146.5625 76.875 L 145.3125 76.25 L 142.8125 74.0625 Z M 143.125 73.125 "/>
<path style=" stroke:none;fill-rule:nonzero;fill:rgb(98.431373%,98.431373%,94.117647%);fill-opacity:1;" d="M 169.6875 141.875 L 170.3125 142.1875 L 173.125 142.1875 L 172.1875 143.125 L 170.9375 143.75 L 170 143.75 L 170 146.25 L 169.375 147.5 L 169.375 144.0625 Z M 169.6875 141.875 "/>
<path style=" stroke:none;fill-rule:nonzero;fill:rgb(83.137256%,87.843138%,85.882354%);fill-opacity:1;" d="M 230 189.375 L 230.625 189.375 L 230.9375 191.25 L 230.9375 194.375 L 228.125 193.4375 L 228.125 193.125 L 230 193.125 Z M 230 189.375 "/>
<path style=" stroke:none;fill-rule:nonzero;fill:rgb(91.37255%,93.725491%,90.196079%);fill-opacity:1;" d="M 244.6875 136.5625 L 245.625 136.5625 L 245 137.8125 L 243.4375 139.0625 L 240.3125 140.625 L 237.5 140.9375 L 238.125 140.3125 L 242.5 138.75 L 244.0625 137.5 L 244.6875 137.5 Z M 244.6875 136.5625 "/>
<path style=" stroke:none;fill-rule:nonzero;fill:rgb(65.098041%,76.862746%,78.039217%);fill-opacity:1;" d="M 178.75 174.0625 L 179.0625 174.6875 L 180.625 174.375 L 180 176.25 L 179.6875 176.875 L 178.4375 176.25 L 177.5 175.625 L 177.8125 174.375 Z M 178.75 174.0625 "/>
<path style=" stroke:none;fill-rule:nonzero;fill:rgb(36.470589%,54.11765%,59.607846%);fill-opacity:1;" d="M 101.25 179.0625 L 101.875 180.3125 L 101.875 181.875 L 100.9375 182.8125 L 99.6875 181.875 L 99.375 180.625 Z M 101.25 179.0625 "/>
<path style=" stroke:none;fill-rule:nonzero;fill:rgb(44.313726%,63.137257%,67.843139%);fill-opacity:1;" d="M 102.5 170 L 103.4375 170.625 L 103.75 173.125 L 102.8125 173.125 L 103.125 174.0625 L 102.8125 175.9375 L 102.1875 175.3125 L 102.1875 171.25 Z M 102.5 170 "/>
<path style=" stroke:none;fill-rule:nonzero;fill:rgb(61.960787%,74.117649%,75.686276%);fill-opacity:1;" d="M 97.8125 120.9375 L 98.75 122.1875 L 97.8125 125 L 96.875 125.9375 L 96.25 126.875 L 96.5625 124.6875 Z M 97.8125 120.9375 "/>
<path style=" stroke:none;fill-rule:nonzero;fill:rgb(67.058825%,78.039217%,78.431374%);fill-opacity:1;" d="M 102.5 113.75 L 103.125 114.0625 L 103.125 114.6875 L 102.5 114.6875 L 102.5 116.25 L 101.25 116.5625 L 100 117.5 L 100.3125 115.625 L 101.875 114.0625 Z M 102.5 113.75 "/>
<path style=" stroke:none;fill-rule:nonzero;fill:rgb(66.666669%,78.039217%,78.823531%);fill-opacity:1;" d="M 186.25 104.375 L 186.875 105 L 186.5625 107.5 L 185.3125 107.8125 L 184.6875 106.875 L 185 105.625 Z M 186.25 104.375 "/>
<path style=" stroke:none;fill-rule:nonzero;fill:rgb(47.843137%,66.666669%,71.372551%);fill-opacity:1;" d="M 188.4375 91.5625 L 189.0625 92.1875 L 188.125 94.0625 L 185.3125 94.375 L 185.625 93.4375 Z M 188.4375 91.5625 "/>
<path style=" stroke:none;fill-rule:nonzero;fill:rgb(58.039218%,71.764708%,74.117649%);fill-opacity:1;" d="M 76.25 172.5 L 77.5 172.8125 L 79.375 175.625 L 79.0625 176.25 L 78.4375 176.5625 L 78.125 175.3125 L 77.1875 175 L 75.9375 172.8125 Z M 76.25 172.5 "/>
<path style=" stroke:none;fill-rule:nonzero;fill:rgb(62.7451%,75.294119%,76.862746%);fill-opacity:1;" d="M 88.75 83.4375 L 90.3125 83.75 L 92.1875 85.3125 L 90.9375 86.5625 L 90 85.625 Z M 88.75 83.4375 "/>
<path style=" stroke:none;fill-rule:nonzero;fill:rgb(35.686275%,52.941179%,58.823532%);fill-opacity:1;" d="M 185 166.5625 L 185.625 167.1875 L 184.0625 169.0625 L 183.4375 169.0625 L 183.125 170.625 L 182.1875 171.875 L 181.5625 171.5625 L 182.1875 170 Z M 185 166.5625 "/>
<path style=" stroke:none;fill-rule:nonzero;fill:rgb(45.490196%,64.313728%,69.01961%);fill-opacity:1;" d="M 211.5625 119.375 L 212.1875 119.375 L 211.875 122.1875 L 211.5625 124.375 L 211.25 124.375 L 211.25 121.5625 L 210.3125 122.1875 L 210.3125 120 Z M 211.5625 119.375 "/>
<path style=" stroke:none;fill-rule:nonzero;fill:rgb(54.509807%,72.156864%,75.294119%);fill-opacity:1;" d="M 83.125 79.375 L 85.9375 80.9375 L 85.3125 82.1875 L 83.75 82.5 Z M 83.125 79.375 "/>
<path style=" stroke:none;fill-rule:nonzero;fill:rgb(60.392159%,74.117649%,76.078433%);fill-opacity:1;" d="M 143.4375 135 L 144.375 136.25 L 145.3125 137.8125 L 146.25 140.3125 L 145.9375 141.25 L 145 140.3125 L 143.4375 136.25 Z M 143.4375 135 "/>
<path style=" stroke:none;fill-rule:nonzero;fill:rgb(49.411765%,69.01961%,73.333335%);fill-opacity:1;" d="M 217.5 238.75 L 220.625 240.3125 L 220 240.9375 L 219.375 241.25 L 217.5 241.25 L 217.8125 239.6875 Z M 217.5 238.75 "/>
<path style=" stroke:none;fill-rule:nonzero;fill:rgb(45.490196%,64.313728%,69.01961%);fill-opacity:1;" d="M 168.125 173.4375 L 171.25 176.5625 L 171.5625 178.125 L 169.375 176.25 L 168.125 174.6875 Z M 168.125 173.4375 "/>
<path style=" stroke:none;fill-rule:nonzero;fill:rgb(90.980393%,93.333334%,89.803922%);fill-opacity:1;" d="M 225 138.75 L 226.5625 139.0625 L 229.375 140.3125 L 230 140.9375 L 227.1875 140.625 L 225 139.375 Z M 225 138.75 "/>
<path style=" stroke:none;fill-rule:nonzero;fill:rgb(79.215688%,82.352942%,78.039217%);fill-opacity:1;" d="M 249.6875 141.5625 L 250 142.1875 L 250.9375 142.5 L 250.625 143.125 L 250 143.125 L 250 143.75 L 248.4375 143.4375 L 247.8125 142.1875 Z M 249.6875 141.5625 "/>
<path style=" stroke:none;fill-rule:nonzero;fill:rgb(56.862748%,70.588237%,72.941178%);fill-opacity:1;" d="M 248.75 140 L 250 141.25 L 249.6875 141.875 L 247.5 142.5 L 246.875 142.5 L 245.9375 142.1875 L 248.4375 140.3125 Z M 248.75 140 "/>
<path style=" stroke:none;fill-rule:nonzero;fill:rgb(72.549021%,81.568629%,80.784315%);fill-opacity:1;" d="M 197.5 86.25 L 198.125 87.5 L 198.125 88.75 L 197.5 89.0625 L 196.875 90 L 195.9375 88.75 L 195.9375 88.125 L 196.875 88.125 L 197.1875 86.5625 Z M 197.5 86.25 "/>
<path style=" stroke:none;fill-rule:nonzero;fill:rgb(61.56863%,74.117649%,75.686276%);fill-opacity:1;" d="M 130.625 76.25 L 132.1875 76.25 L 131.875 77.1875 L 130 78.4375 L 128.75 79.6875 L 127.5 79.0625 L 128.4375 78.75 L 129.6875 77.5 L 130.3125 77.1875 Z M 130.625 76.25 "/>
<path style=" stroke:none;fill-rule:nonzero;fill:rgb(80.000001%,82.745099%,78.039217%);fill-opacity:1;" d="M 159.6875 97.8125 L 161.25 97.8125 L 161.5625 98.125 L 161.5625 99.6875 L 160.3125 100 L 159.375 99.0625 Z M 159.6875 97.8125 "/>
<path style=" stroke:none;fill-rule:nonzero;fill:rgb(92.54902%,94.509804%,91.37255%);fill-opacity:1;" d="M 240.9375 169.0625 L 242.5 169.6875 L 244.0625 171.875 L 241.25 171.25 Z M 240.9375 169.0625 "/>
<path style=" stroke:none;fill-rule:nonzero;fill:rgb(49.019608%,67.058825%,70.980394%);fill-opacity:1;" d="M 212.1875 114.6875 L 212.8125 115.625 L 214.0625 115.3125 L 213.125 118.125 L 212.5 118.125 L 212.5 117.5 L 211.5625 117.1875 L 211.875 116.875 Z M 212.1875 114.6875 "/>
<path style=" stroke:none;fill-rule:nonzero;fill:rgb(44.313726%,62.7451%,67.843139%);fill-opacity:1;" d="M 82.1875 107.8125 L 82.8125 108.4375 L 81.25 111.25 L 80 111.875 L 80.625 110 L 81.5625 108.125 Z M 82.1875 107.8125 "/>
<path style=" stroke:none;fill-rule:nonzero;fill:rgb(44.705883%,63.137257%,67.843139%);fill-opacity:1;" d="M 181.25 171.25 L 181.875 171.5625 L 181.25 173.125 L 180.3125 174.0625 L 179.0625 173.75 L 180.9375 171.5625 Z M 181.25 171.25 "/>
<path style=" stroke:none;fill-rule:nonzero;fill:rgb(58.039218%,69.803923%,70.980394%);fill-opacity:1;" d="M 93.75 150 L 94.375 150.3125 L 91.875 151.25 L 88.4375 151.5625 L 89.375 150.625 Z M 93.75 150 "/>
<path style=" stroke:none;fill-rule:nonzero;fill:rgb(12.156863%,22.352941%,29.411766%);fill-opacity:1;" d="M 253.4375 131.25 L 253.75 132.1875 L 252.8125 135.3125 L 251.875 135.3125 L 252.1875 133.4375 Z M 253.4375 131.25 "/>
<path style=" stroke:none;fill-rule:nonzero;fill:rgb(80.000001%,82.745099%,78.039217%);fill-opacity:1;" d="M 156.25 115.9375 L 157.5 116.5625 L 154.0625 119.0625 L 153.4375 118.75 L 154.6875 117.1875 Z M 156.25 115.9375 "/>
<path style=" stroke:none;fill-rule:nonzero;fill:rgb(49.411765%,68.627453%,72.941178%);fill-opacity:1;" d="M 193.125 95.625 L 194.0625 95.9375 L 193.75 96.875 L 192.5 96.5625 L 192.5 97.1875 L 193.125 97.5 L 192.1875 97.8125 L 191.875 98.75 L 191.25 98.4375 L 191.875 96.5625 L 193.125 96.25 Z M 193.125 95.625 "/>
<path style=" stroke:none;fill-rule:nonzero;fill:rgb(85.490197%,88.627452%,85.09804%);fill-opacity:1;" d="M 141.875 182.8125 L 144.6875 182.8125 L 145 183.75 L 141.5625 183.75 Z M 141.875 182.8125 "/>
<path style=" stroke:none;fill-rule:nonzero;fill:rgb(66.274512%,77.64706%,78.823531%);fill-opacity:1;" d="M 67.8125 149.6875 L 68.4375 150.9375 L 68.75 153.4375 L 68.125 153.4375 L 67.1875 150.625 L 67.1875 150 Z M 67.8125 149.6875 "/>
<path style=" stroke:none;fill-rule:nonzero;fill:rgb(71.372551%,80.784315%,80.392158%);fill-opacity:1;" d="M 65.9375 142.8125 L 67.8125 144.375 L 67.8125 147.5 L 67.5 147.5 L 67.1875 145.3125 L 66.875 144.375 L 65.625 143.75 Z M 65.9375 142.8125 "/>
<path style=" stroke:none;fill-rule:nonzero;fill:rgb(72.156864%,81.568629%,80.784315%);fill-opacity:1;" d="M 99.6875 119.375 L 100.3125 119.6875 L 99.0625 122.5 L 98.125 121.875 L 98.4375 120.3125 L 99.6875 120 Z M 99.6875 119.375 "/>
<path style=" stroke:none;fill-rule:nonzero;fill:rgb(42.745098%,61.176473%,66.274512%);fill-opacity:1;" d="M 79.6875 111.875 L 80.3125 112.1875 L 80 113.75 L 79.375 115.3125 L 78.125 115.9375 L 78.75 114.0625 Z M 79.6875 111.875 "/>
<path style=" stroke:none;fill-rule:nonzero;fill:rgb(68.627453%,78.823531%,78.823531%);fill-opacity:1;" d="M 126.875 164.0625 L 127.8125 164.0625 L 128.125 166.5625 L 127.1875 166.25 L 127.1875 165.625 L 126.5625 165.625 L 126.25 166.25 L 126.5625 164.375 Z M 126.875 164.0625 "/>
<path style=" stroke:none;fill-rule:nonzero;fill:rgb(45.490196%,64.313728%,69.01961%);fill-opacity:1;" d="M 102.5 176.5625 L 102.8125 176.5625 L 102.8125 178.75 L 102.1875 180.625 L 101.5625 180.3125 L 101.875 177.5 Z M 102.5 176.5625 "/>
<path style=" stroke:none;fill-rule:nonzero;fill:rgb(87.450981%,90.588236%,87.450981%);fill-opacity:1;" d="M 217.5 130.625 L 218.125 130.9375 L 219.6875 133.75 L 220.625 135.3125 L 219.375 134.6875 L 217.5 131.5625 Z M 217.5 130.625 "/>
<path style=" stroke:none;fill-rule:nonzero;fill:rgb(51.372552%,72.156864%,75.686276%);fill-opacity:1;" d="M 221.5625 235.625 L 222.5 235.625 L 223.4375 237.5 L 224.375 238.125 L 223.125 238.75 L 222.1875 237.8125 L 221.875 236.25 Z M 221.5625 235.625 "/>
<path style=" stroke:none;fill-rule:nonzero;fill:rgb(49.411765%,69.01961%,73.333335%);fill-opacity:1;" d="M 217.1875 234.6875 L 217.8125 234.6875 L 217.5 235.9375 L 215.3125 236.875 L 215.625 235.625 L 215 235.625 L 215 235 L 216.25 235.3125 Z M 217.1875 234.6875 "/>
<path style=" stroke:none;fill-rule:nonzero;fill:rgb(63.137257%,74.901962%,75.686276%);fill-opacity:1;" d="M 189.0625 183.75 L 190 184.0625 L 189.375 185.3125 L 188.4375 185.9375 L 187.1875 184.6875 L 187.5 184.0625 L 188.75 184.375 Z M 189.0625 183.75 "/>
<path style=" stroke:none;fill-rule:nonzero;fill:rgb(45.09804%,63.529414%,68.627453%);fill-opacity:1;" d="M 187.5 162.8125 L 187.8125 163.75 L 185.9375 167.1875 L 185.3125 166.875 L 185.9375 165.3125 Z M 187.5 162.8125 "/>
<path style=" stroke:none;fill-rule:nonzero;fill:rgb(78.431374%,82.352942%,78.431374%);fill-opacity:1;" d="M 245.9375 145.625 L 248.125 145.9375 L 247.8125 146.875 L 246.25 147.1875 L 245.625 145.9375 Z M 245.9375 145.625 "/>
<path style=" stroke:none;fill-rule:nonzero;fill:rgb(38.039216%,55.686277%,61.176473%);fill-opacity:1;" d="M 229.6875 130 L 231.25 130.9375 L 233.4375 131.875 L 233.4375 132.1875 L 231.25 132.1875 L 229.6875 130.625 Z M 229.6875 130 "/>
<path style=" stroke:none;fill-rule:nonzero;fill:rgb(91.764706%,93.725491%,89.803922%);fill-opacity:1;" d="M 239.375 109.6875 L 241.25 110 L 244.375 111.875 L 244.0625 112.5 L 240.3125 110.3125 Z M 239.375 109.6875 "/>
<path style=" stroke:none;fill-rule:nonzero;fill:rgb(5.490196%,15.294118%,23.137255%);fill-opacity:1;" d="M 239.6875 105 L 242.5 105.625 L 243.125 105.9375 L 242.8125 106.875 L 240 105.9375 Z M 239.6875 105 "/>
<path style=" stroke:none;fill-rule:nonzero;fill:rgb(45.882353%,64.705884%,69.01961%);fill-opacity:1;" d="M 120.625 185 L 122.5 185.3125 L 124.0625 185.9375 L 124.0625 186.5625 L 121.5625 186.25 L 121.25 185.3125 Z M 120.625 185 "/>
<path style=" stroke:none;fill-rule:nonzero;fill:rgb(65.490198%,77.254903%,78.431374%);fill-opacity:1;" d="M 198.75 184.0625 L 199.0625 185 L 198.4375 185 L 197.8125 186.5625 L 196.5625 186.875 L 198.125 184.375 Z M 198.75 184.0625 "/>
<path style=" stroke:none;fill-rule:nonzero;fill:rgb(63.921571%,74.901962%,76.078433%);fill-opacity:1;" d="M 200 78.125 L 200.3125 78.125 L 200.3125 81.25 L 198.75 82.1875 L 199.6875 79.0625 Z M 200 78.125 "/>
</g>
</svg>
